<svg width="250" height="112" viewBox="0 0 250 112" fill="none" xmlns="http://www.w3.org/2000/svg">
<g filter="url(#filter0_n_125_38)">
<mask id="path-1-outside-1_125_38" maskUnits="userSpaceOnUse" x="-0.861477" y="14.2037" width="52.1419" height="46.2984" fill="black">
<rect fill="white" x="-0.861477" y="14.2037" width="52.1419" height="46.2984"/>
<path d="M4.60583 20.2069C7.60682 20.2572 11.3795 20.2239 15.9239 20.1068L25.8258 44.9343L25.9454 44.9312L34.9386 19.617L37.6891 19.5461C39.6664 19.4952 42.4551 19.3595 46.0555 19.1391C46.1258 19.3926 46.1622 19.5672 46.1647 19.6629C46.1676 19.7745 46.1408 19.9746 46.0844 20.2633C45.5116 20.3259 45.0504 20.3856 44.7009 20.4425C44.3513 20.4994 43.883 20.5912 43.2959 20.718C42.7247 20.8444 42.2658 20.9919 41.9191 21.1604C41.572 21.3129 41.2664 21.5282 41.0024 21.8063C40.7379 22.0684 40.6019 22.3671 40.5946 22.7023C40.5317 26.4536 40.5668 30.9123 40.6999 36.0786C40.835 41.3245 41.0682 46.3526 41.3996 51.1627C41.4262 51.5769 41.6188 51.9309 41.9774 52.2248C42.3356 52.5028 42.8436 52.7131 43.5015 52.8557C44.1753 52.9979 44.7365 53.1031 45.185 53.1714C45.649 53.2232 46.2486 53.2716 46.9837 53.3165C47.0541 53.57 47.0915 53.7844 47.0961 53.9598C47.0993 54.0874 47.0716 54.2477 47.0127 54.4406C44.3155 54.4144 41.5398 54.438 38.6856 54.5115C35.8155 54.5855 33.0422 54.7048 30.3659 54.8695C30.2972 54.6798 30.2612 54.5211 30.2579 54.3936C30.2509 54.1225 30.2773 53.9064 30.3369 53.7453C31.0688 53.6627 31.6571 53.5837 32.1019 53.5084C32.5623 53.4168 33.1173 53.2828 33.7669 53.1065C34.4325 52.9298 34.937 52.6934 35.2804 52.3974C35.6234 52.0854 35.7975 51.7219 35.8028 51.3069C35.8341 46.3279 35.7994 41.8851 35.6988 37.9785C35.6023 34.2314 35.4127 29.9681 35.13 25.1886L34.9386 25.1935L24.75 54.2722L24.5108 54.2783L12.1062 25.2073L11.8431 25.2141C11.8154 29.092 11.8664 33.5504 11.9962 38.5891C12.0915 42.2884 12.2825 46.6075 12.5693 51.5464C12.6386 52.9966 14.4233 53.8361 17.9236 54.0651C18.0103 54.3341 18.0557 54.5483 18.0598 54.7078C18.0639 54.8673 18.0281 55.0277 17.9525 55.1892C15.4148 55.1589 13.1493 55.1694 11.1562 55.2207C9.88054 55.2536 7.74511 55.3564 4.74987 55.5293C4.66604 55.3719 4.62207 55.2135 4.61796 55.0541C4.61098 54.783 4.6453 54.5667 4.72092 54.4052C8.23619 53.9796 9.97534 53.0492 9.93837 51.6142C10.0016 46.6343 9.97072 41.7207 9.84585 36.8734C9.75589 33.3814 9.61255 29.6753 9.41584 25.7553C9.38264 25.086 9.3284 24.5289 9.25312 24.0841C9.17743 23.6233 9.04757 23.2278 8.86355 22.8974C8.67952 22.5671 8.48937 22.3087 8.2931 22.1223C8.09683 21.9359 7.79753 21.7761 7.3952 21.6429C6.99246 21.4937 6.59893 21.3921 6.2146 21.3382C5.84581 21.2679 5.31736 21.1938 4.62925 21.1158C4.56218 20.9898 4.52659 20.8472 4.52249 20.6877C4.51756 20.4964 4.54534 20.3361 4.60583 20.2069Z"/>
</mask>
<path d="M4.60583 20.2069C7.60682 20.2572 11.3795 20.2239 15.9239 20.1068L25.8258 44.9343L25.9454 44.9312L34.9386 19.617L37.6891 19.5461C39.6664 19.4952 42.4551 19.3595 46.0555 19.1391C46.1258 19.3926 46.1622 19.5672 46.1647 19.6629C46.1676 19.7745 46.1408 19.9746 46.0844 20.2633C45.5116 20.3259 45.0504 20.3856 44.7009 20.4425C44.3513 20.4994 43.883 20.5912 43.2959 20.718C42.7247 20.8444 42.2658 20.9919 41.9191 21.1604C41.572 21.3129 41.2664 21.5282 41.0024 21.8063C40.7379 22.0684 40.6019 22.3671 40.5946 22.7023C40.5317 26.4536 40.5668 30.9123 40.6999 36.0786C40.835 41.3245 41.0682 46.3526 41.3996 51.1627C41.4262 51.5769 41.6188 51.9309 41.9774 52.2248C42.3356 52.5028 42.8436 52.7131 43.5015 52.8557C44.1753 52.9979 44.7365 53.1031 45.185 53.1714C45.649 53.2232 46.2486 53.2716 46.9837 53.3165C47.0541 53.57 47.0915 53.7844 47.0961 53.9598C47.0993 54.0874 47.0716 54.2477 47.0127 54.4406C44.3155 54.4144 41.5398 54.438 38.6856 54.5115C35.8155 54.5855 33.0422 54.7048 30.3659 54.8695C30.2972 54.6798 30.2612 54.5211 30.2579 54.3936C30.2509 54.1225 30.2773 53.9064 30.3369 53.7453C31.0688 53.6627 31.6571 53.5837 32.1019 53.5084C32.5623 53.4168 33.1173 53.2828 33.7669 53.1065C34.4325 52.9298 34.937 52.6934 35.2804 52.3974C35.6234 52.0854 35.7975 51.7219 35.8028 51.3069C35.8341 46.3279 35.7994 41.8851 35.6988 37.9785C35.6023 34.2314 35.4127 29.9681 35.13 25.1886L34.9386 25.1935L24.75 54.2722L24.5108 54.2783L12.1062 25.2073L11.8431 25.2141C11.8154 29.092 11.8664 33.5504 11.9962 38.5891C12.0915 42.2884 12.2825 46.6075 12.5693 51.5464C12.6386 52.9966 14.4233 53.8361 17.9236 54.0651C18.0103 54.3341 18.0557 54.5483 18.0598 54.7078C18.0639 54.8673 18.0281 55.0277 17.9525 55.1892C15.4148 55.1589 13.1493 55.1694 11.1562 55.2207C9.88054 55.2536 7.74511 55.3564 4.74987 55.5293C4.66604 55.3719 4.62207 55.2135 4.61796 55.0541C4.61098 54.783 4.6453 54.5667 4.72092 54.4052C8.23619 53.9796 9.97534 53.0492 9.93837 51.6142C10.0016 46.6343 9.97072 41.7207 9.84585 36.8734C9.75589 33.3814 9.61255 29.6753 9.41584 25.7553C9.38264 25.086 9.3284 24.5289 9.25312 24.0841C9.17743 23.6233 9.04757 23.2278 8.86355 22.8974C8.67952 22.5671 8.48937 22.3087 8.2931 22.1223C8.09683 21.9359 7.79753 21.7761 7.3952 21.6429C6.99246 21.4937 6.59893 21.3921 6.2146 21.3382C5.84581 21.2679 5.31736 21.1938 4.62925 21.1158C4.56218 20.9898 4.52659 20.8472 4.52249 20.6877C4.51756 20.4964 4.54534 20.3361 4.60583 20.2069Z" fill="black"/>
<path d="M4.60583 20.2069L4.67292 16.2074L2.08202 16.164L0.983246 18.5108L4.60583 20.2069ZM15.9239 20.1068L19.6393 18.625L18.6069 16.0364L15.8209 16.1081L15.9239 20.1068ZM25.8258 44.9343L22.1104 46.4161L23.1428 49.0047L25.9288 48.9329L25.8258 44.9343ZM25.9454 44.9312L26.0484 48.9298L28.7949 48.8591L29.7146 46.2702L25.9454 44.9312ZM34.9386 19.617L34.8356 15.6183L32.0891 15.689L31.1694 18.2779L34.9386 19.617ZM46.0555 19.1391L49.9098 18.0694L49.0436 14.9487L45.8111 15.1466L46.0555 19.1391ZM46.0844 20.2633L46.5191 24.2396L49.4458 23.9196L50.0102 21.0301L46.0844 20.2633ZM43.2959 20.718L42.4514 16.8082L42.4414 16.8104L42.4316 16.8125L43.2959 20.718ZM41.9191 21.1604L43.5285 24.8223L43.5986 24.7915L43.6676 24.758L41.9191 21.1604ZM41.0024 21.8063L43.8179 24.6475L43.861 24.6049L43.9027 24.5609L41.0024 21.8063ZM40.5946 22.7023L36.5956 22.615L36.5954 22.6251L36.5952 22.6352L40.5946 22.7023ZM41.3996 51.1627L45.3913 50.9061L45.3908 50.897L45.3901 50.8878L41.3996 51.1627ZM41.9774 52.2248L39.4418 55.3185L39.483 55.3522L39.525 55.3849L41.9774 52.2248ZM43.5015 52.8557L42.6541 56.7649L42.6648 56.7673L42.6755 56.7695L43.5015 52.8557ZM45.185 53.1714L44.5835 57.1259L44.6618 57.1378L44.7407 57.1466L45.185 53.1714ZM46.9837 53.3165L50.838 52.2467L50.0751 49.4978L47.2275 49.3239L46.9837 53.3165ZM47.0127 54.4406L46.9738 58.4404L49.9659 58.4696L50.8388 55.6074L47.0127 54.4406ZM30.3659 54.8695L26.605 56.2317L27.6242 59.0457L30.6115 58.8619L30.3659 54.8695ZM30.3369 53.7453L29.8879 49.7706L27.4413 50.047L26.586 52.3559L30.3369 53.7453ZM32.1019 53.5084L32.7694 57.4523L32.8263 57.4427L32.8828 57.4314L32.1019 53.5084ZM33.7669 53.1065L32.7405 49.2404L32.7299 49.2432L32.7193 49.2461L33.7669 53.1065ZM35.2804 52.3974L37.8923 55.4269L37.9326 55.3922L37.972 55.3563L35.2804 52.3974ZM35.8028 51.3069L39.8025 51.3576L39.8026 51.3448L39.8027 51.332L35.8028 51.3069ZM35.13 25.1886L39.123 24.9524L38.8946 21.0903L35.027 21.1899L35.13 25.1886ZM34.9386 25.1935L34.8356 21.1949L32.0764 21.2659L31.1637 23.8708L34.9386 25.1935ZM24.75 54.2722L24.853 58.2709L27.6123 58.1998L28.525 55.5949L24.75 54.2722ZM24.5108 54.2783L20.8318 55.8482L21.898 58.347L24.6138 58.277L24.5108 54.2783ZM12.1062 25.2073L15.7853 23.6374L14.7191 21.1387L12.0032 21.2086L12.1062 25.2073ZM11.8431 25.2141L11.7401 21.2154L7.87093 21.3151L7.84324 25.1854L11.8431 25.2141ZM12.5693 51.5464L16.5648 51.3555L16.5638 51.335L16.5626 51.3145L12.5693 51.5464ZM17.9236 54.0651L21.7307 52.838L20.8969 50.251L18.1846 50.0736L17.9236 54.0651ZM17.9525 55.1892L17.9047 59.189L20.4821 59.2198L21.5751 56.8854L17.9525 55.1892ZM4.74987 55.5293L1.21942 57.4097L2.42343 59.6703L4.98038 59.5227L4.74987 55.5293ZM4.72092 54.4052L4.24011 50.4342L2.03864 50.7008L1.09833 52.7091L4.72092 54.4052ZM9.93837 51.6142L5.93869 51.5634L5.93771 51.6403L5.9397 51.7172L9.93837 51.6142ZM9.41584 25.7553L5.42075 25.9534L5.42086 25.9557L9.41584 25.7553ZM9.25312 24.0841L5.30602 24.7325L5.30759 24.742L5.3092 24.7516L9.25312 24.0841ZM7.3952 21.6429L6.00577 25.3938L6.07133 25.4181L6.13769 25.44L7.3952 21.6429ZM6.2146 21.3382L5.46582 25.2675L5.56194 25.2858L5.65883 25.2994L6.2146 21.3382ZM4.62925 21.1158L1.09879 22.9962L2.08794 24.8533L4.17867 25.0903L4.62925 21.1158ZM4.60583 20.2069L4.53875 24.2063C7.61727 24.258 11.4514 24.2233 16.0269 24.1055L15.9239 20.1068L15.8209 16.1081C11.3076 16.2244 7.59638 16.2565 4.67292 16.2074L4.60583 20.2069ZM15.9239 20.1068L12.2085 21.5886L22.1104 46.4161L25.8258 44.9343L29.5412 43.4524L19.6393 18.625L15.9239 20.1068ZM25.8258 44.9343L25.9288 48.9329L26.0484 48.9298L25.9454 44.9312L25.8424 40.9325L25.7228 40.9356L25.8258 44.9343ZM25.9454 44.9312L29.7146 46.2702L38.7078 20.956L34.9386 19.617L31.1694 18.2779L22.1762 43.5921L25.9454 44.9312ZM34.9386 19.617L35.0416 23.6156L37.7922 23.5448L37.6891 19.5461L37.5861 15.5474L34.8356 15.6183L34.9386 19.617ZM37.6891 19.5461L37.7922 23.5448C39.84 23.492 42.6839 23.353 46.2999 23.1317L46.0555 19.1391L45.8111 15.1466C42.2263 15.366 39.4927 15.4983 37.5861 15.5474L37.6891 19.5461ZM46.0555 19.1391L42.2012 20.2089C42.2229 20.2872 42.2255 20.3041 42.2198 20.2768C42.2166 20.2618 42.2072 20.2154 42.1972 20.1458C42.1884 20.0843 42.1707 19.9483 42.166 19.7659L46.1647 19.6629L50.1634 19.5598C50.1464 18.901 49.966 18.2719 49.9098 18.0694L46.0555 19.1391ZM46.1647 19.6629L42.166 19.7659C42.164 19.6866 42.1651 19.6211 42.1667 19.5734C42.1683 19.5249 42.1708 19.4856 42.173 19.4577C42.1771 19.4037 42.1815 19.371 42.1821 19.3666C42.1829 19.3606 42.1777 19.3987 42.1586 19.4964L46.0844 20.2633L50.0102 21.0301C50.0605 20.773 50.179 20.1682 50.1634 19.5598L46.1647 19.6629ZM46.0844 20.2633L45.6497 16.287C45.0446 16.3531 44.5061 16.4216 44.0585 16.4944L44.7009 20.4425L45.3432 24.3906C45.5948 24.3497 45.9787 24.2987 46.5191 24.2396L46.0844 20.2633ZM44.7009 20.4425L44.0585 16.4944C43.6108 16.5673 43.0664 16.6754 42.4514 16.8082L43.2959 20.718L44.1404 24.6279C44.6996 24.5071 45.0918 24.4315 45.3432 24.3906L44.7009 20.4425ZM43.2959 20.718L42.4316 16.8125C41.6947 16.9756 40.904 17.2064 40.1707 17.5627L41.9191 21.1604L43.6676 24.758C43.6353 24.7737 43.6548 24.7613 43.7469 24.7317C43.8364 24.7029 43.9713 24.6654 44.1602 24.6235L43.2959 20.718ZM41.9191 21.1604L40.3098 17.4984C39.4707 17.8672 38.7276 18.3929 38.102 19.0516L41.0024 21.8063L43.9027 24.5609C43.8053 24.6635 43.6734 24.7587 43.5285 24.8223L41.9191 21.1604ZM41.0024 21.8063L38.1868 18.965C37.2744 19.8692 36.6281 21.1247 36.5956 22.615L40.5946 22.7023L44.5937 22.7896C44.5858 23.1518 44.5044 23.5285 44.3429 23.8835C44.1847 24.2312 43.9843 24.4826 43.8179 24.6475L41.0024 21.8063ZM40.5946 22.7023L36.5952 22.6352C36.531 26.4597 36.5672 30.9781 36.7012 36.1816L40.6999 36.0786L44.6985 35.9756C44.5664 30.8465 44.5324 26.4474 44.5941 22.7694L40.5946 22.7023ZM40.6999 36.0786L36.7012 36.1816C36.8377 41.4799 37.0734 46.5655 37.409 51.4376L41.3996 51.1627L45.3901 50.8878C45.0631 46.1397 44.8323 41.1691 44.6985 35.9756L40.6999 36.0786ZM41.3996 51.1627L37.4078 51.4193C37.5143 53.0758 38.3367 54.4127 39.4418 55.3185L41.9774 52.2248L44.5131 49.1312C44.6736 49.2628 44.8931 49.4879 45.0777 49.8273C45.2674 50.176 45.3685 50.5511 45.3913 50.9061L41.3996 51.1627ZM41.9774 52.2248L39.525 55.3849C40.528 56.1633 41.6715 56.5519 42.6541 56.7649L43.5015 52.8557L44.3489 48.9465C44.2786 48.9313 44.2281 48.9176 44.195 48.9076C44.1619 48.8976 44.1504 48.8925 44.157 48.8952C44.1656 48.8988 44.2744 48.9442 44.4298 49.0648L41.9774 52.2248ZM43.5015 52.8557L42.6755 56.7695C43.39 56.9203 44.032 57.042 44.5835 57.1259L45.185 53.1714L45.7865 49.2169C45.4409 49.1643 44.9606 49.0756 44.3275 48.9419L43.5015 52.8557ZM45.185 53.1714L44.7407 57.1466C45.2979 57.2089 45.9712 57.2621 46.74 57.3091L46.9837 53.3165L47.2275 49.3239C46.526 49.2811 46.0001 49.2376 45.6293 49.1961L45.185 53.1714ZM46.9837 53.3165L43.1294 54.3863C43.1366 54.4121 43.132 54.3999 43.1242 54.3553C43.1168 54.3132 43.1012 54.2113 43.0974 54.0628L47.0961 53.9598L51.0947 53.8568C51.0787 53.2356 50.957 52.6753 50.838 52.2467L46.9837 53.3165ZM47.0961 53.9598L43.0974 54.0628C43.0907 53.8031 43.117 53.6049 43.1365 53.4925C43.1567 53.3759 43.1787 53.3001 43.1867 53.2739L47.0127 54.4406L50.8388 55.6074C50.959 55.2131 51.1136 54.5892 51.0947 53.8568L47.0961 53.9598ZM47.0127 54.4406L47.0516 50.4408C44.3045 50.4141 41.4814 50.4382 38.5826 50.5129L38.6856 54.5115L38.7886 58.5102C41.5982 58.4378 44.3265 58.4147 46.9738 58.4404L47.0127 54.4406ZM38.6856 54.5115L38.5826 50.5129C35.6682 50.5879 32.8473 50.7092 30.1202 50.877L30.3659 54.8695L30.6115 58.8619C33.2372 58.7004 35.9627 58.583 38.7886 58.5102L38.6856 54.5115ZM30.3659 54.8695L34.1268 53.5073C34.1361 53.533 34.162 53.6076 34.1882 53.723C34.2134 53.8343 34.2499 54.0308 34.2566 54.2906L30.2579 54.3936L26.2592 54.4966C26.2781 55.2289 26.4646 55.8441 26.605 56.2317L30.3659 54.8695ZM30.2579 54.3936L34.2566 54.2906C34.257 54.3057 34.2585 54.3852 34.243 54.5123C34.228 54.6356 34.1905 54.8577 34.0879 55.1348L30.3369 53.7453L26.586 52.3559C26.2773 53.1894 26.2458 53.9774 26.2592 54.4966L30.2579 54.3936ZM30.3369 53.7453L30.786 57.72C31.5515 57.6336 32.2214 57.5451 32.7694 57.4523L32.1019 53.5084L31.4345 49.5645C31.0928 49.6223 30.586 49.6917 29.8879 49.7706L30.3369 53.7453ZM32.1019 53.5084L32.8828 57.4314C33.4619 57.3162 34.111 57.1578 34.8145 56.9669L33.7669 53.1065L32.7193 49.2461C32.1236 49.4078 31.6627 49.5173 31.321 49.5854L32.1019 53.5084ZM33.7669 53.1065L34.7933 56.9726C35.7679 56.7138 36.9146 56.2698 37.8923 55.4269L35.2804 52.3974L32.6686 49.3678C32.7498 49.2977 32.8185 49.2502 32.8655 49.2207C32.9124 49.1913 32.9418 49.1772 32.9474 49.1746C32.9531 49.1719 32.9401 49.1783 32.9043 49.1909C32.8687 49.2035 32.815 49.2206 32.7405 49.2404L33.7669 53.1065ZM35.2804 52.3974L37.972 55.3563C39.0289 54.3949 39.7814 53.0174 39.8025 51.3576L35.8028 51.3069L31.8031 51.2561C31.8076 50.9004 31.8893 50.5207 32.0608 50.1626C32.2277 49.8142 32.4353 49.578 32.5888 49.4384L35.2804 52.3974ZM35.8028 51.3069L39.8027 51.332C39.8342 46.3212 39.7995 41.8344 39.6975 37.8755L35.6988 37.9785L31.7001 38.0815C31.7994 41.9357 31.834 46.3345 31.8029 51.2817L35.8028 51.3069ZM35.6988 37.9785L39.6975 37.8755C39.5995 34.0738 39.4076 29.7648 39.123 24.9524L35.13 25.1886L31.137 25.4248C31.4177 30.1713 31.605 34.3889 31.7001 38.0815L35.6988 37.9785ZM35.13 25.1886L35.027 21.1899L34.8356 21.1949L34.9386 25.1935L35.0417 29.1922L35.233 29.1873L35.13 25.1886ZM34.9386 25.1935L31.1637 23.8708L20.975 52.9495L24.75 54.2722L28.525 55.5949L38.7136 26.5162L34.9386 25.1935ZM24.75 54.2722L24.647 50.2735L24.4078 50.2797L24.5108 54.2783L24.6138 58.277L24.853 58.2709L24.75 54.2722ZM24.5108 54.2783L28.1899 52.7085L15.7853 23.6374L12.1062 25.2073L8.42716 26.7771L20.8318 55.8482L24.5108 54.2783ZM12.1062 25.2073L12.0032 21.2086L11.7401 21.2154L11.8431 25.2141L11.9461 29.2127L12.2092 29.206L12.1062 25.2073ZM11.8431 25.2141L7.84324 25.1854C7.8151 29.118 7.86692 33.6217 7.99754 38.6921L11.9962 38.5891L15.9949 38.4861C15.8659 33.4791 15.8157 29.0661 15.843 25.2427L11.8431 25.2141ZM11.9962 38.5891L7.99754 38.6921C8.09424 42.4459 8.28755 46.8097 8.57606 51.7783L12.5693 51.5464L16.5626 51.3145C16.2775 46.4052 16.0888 42.1309 15.9949 38.4861L11.9962 38.5891ZM12.5693 51.5464L8.57389 51.7372C8.70417 54.4649 10.5767 56.0927 12.2572 56.8832C13.8264 57.6214 15.74 57.9308 17.6625 58.0566L17.9236 54.0651L18.1846 50.0736C17.4382 50.0248 16.8549 49.9476 16.4127 49.8582C15.9603 49.7668 15.7347 49.6781 15.6625 49.6442C15.586 49.6082 15.7979 49.689 16.0517 50.0024C16.347 50.3671 16.5409 50.8548 16.5648 51.3555L12.5693 51.5464ZM17.9236 54.0651L14.1164 55.2922C14.1291 55.3314 14.1221 55.3161 14.1096 55.2569C14.0989 55.2066 14.0672 55.0465 14.0611 54.8108L18.0598 54.7078L22.0585 54.6048C22.0397 53.8776 21.8591 53.2365 21.7307 52.838L17.9236 54.0651ZM18.0598 54.7078L14.0611 54.8108C14.0474 54.2794 14.1737 53.8269 14.3299 53.4931L17.9525 55.1892L21.5751 56.8854C21.8826 56.2286 22.0804 55.4551 22.0585 54.6048L18.0598 54.7078ZM17.9525 55.1892L18.0004 51.1895C15.4251 51.1587 13.1079 51.1691 11.0532 51.222L11.1562 55.2207L11.2592 59.2194C13.1907 59.1696 15.4044 59.159 17.9047 59.189L17.9525 55.1892ZM11.1562 55.2207L11.0532 51.222C9.70762 51.2567 7.51592 51.363 4.51937 51.536L4.74987 55.5293L4.98038 59.5227C7.97431 59.3499 10.0535 59.2504 11.2592 59.2194L11.1562 55.2207ZM4.74987 55.5293L8.28033 53.6489C8.45359 53.9742 8.60295 54.4197 8.61663 54.9511L4.61796 55.0541L0.619288 55.1571C0.641191 56.0074 0.878493 56.7696 1.21942 57.4097L4.74987 55.5293ZM4.61796 55.0541L8.61663 54.9511C8.61802 55.0047 8.61793 55.1333 8.58904 55.3154C8.56031 55.4965 8.49587 55.7759 8.3435 56.1013L4.72092 54.4052L1.09833 52.7091C0.657921 53.6497 0.603894 54.5595 0.619288 55.1571L4.61796 55.0541ZM4.72092 54.4052L5.20172 58.3762C7.1237 58.1435 9.02317 57.7312 10.5485 56.9153C12.1755 56.0449 14.0089 54.2988 13.937 51.5111L9.93837 51.6142L5.9397 51.7172C5.92607 51.1884 6.09705 50.6614 6.38634 50.2594C6.6331 49.9165 6.85226 49.8198 6.77496 49.8612C6.70377 49.8993 6.47954 50.0009 6.02484 50.1182C5.58088 50.2328 4.99356 50.343 4.24011 50.4342L4.72092 54.4052ZM9.93837 51.6142L13.938 51.6649C14.0019 46.6352 13.9707 41.6703 13.8445 36.7704L9.84585 36.8734L5.84717 36.9764C5.97069 41.7711 6.00125 46.6334 5.93869 51.5634L9.93837 51.6142ZM9.84585 36.8734L13.8445 36.7704C13.7536 33.2422 13.609 29.5034 13.4108 25.5548L9.41584 25.7553L5.42086 25.9557C5.61615 29.8472 5.75815 33.5205 5.84717 36.9764L9.84585 36.8734ZM9.41584 25.7553L13.4109 25.5571C13.3733 24.7981 13.3079 24.0716 13.197 23.4166L9.25312 24.0841L5.3092 24.7516C5.34892 24.9862 5.392 25.3738 5.42075 25.9534L9.41584 25.7553ZM9.25312 24.0841L13.2002 23.4357C13.0666 22.6224 12.8124 21.7666 12.3579 20.9508L8.86355 22.8974L5.36919 24.8441C5.32541 24.7655 5.30523 24.71 5.29852 24.6895C5.29202 24.6697 5.29761 24.6813 5.30602 24.7325L9.25312 24.0841ZM8.86355 22.8974L12.3579 20.9508C12.0488 20.3959 11.6281 19.7732 11.0478 19.222L8.2931 22.1223L5.53845 25.0227C5.43774 24.927 5.38116 24.8538 5.36131 24.8268C5.34089 24.7991 5.34505 24.8008 5.36919 24.8441L8.86355 22.8974ZM8.2931 22.1223L11.0478 19.222C10.251 18.4652 9.3305 18.0701 8.65271 17.8457L7.3952 21.6429L6.13769 25.44C6.1735 25.4519 6.13071 25.441 6.03724 25.3911C5.94619 25.3425 5.75702 25.2302 5.53845 25.0227L8.2931 22.1223ZM7.3952 21.6429L8.78463 17.8919C8.14059 17.6534 7.46767 17.4748 6.77038 17.377L6.2146 21.3382L5.65883 25.2994C5.73019 25.3094 5.84434 25.334 6.00577 25.3938L7.3952 21.6429ZM6.2146 21.3382L6.96338 17.4089C6.44579 17.3103 5.79965 17.2228 5.07983 17.1412L4.62925 21.1158L4.17867 25.0903C4.83506 25.1647 5.24583 25.2256 5.46582 25.2675L6.2146 21.3382ZM4.62925 21.1158L8.1597 19.2354C8.4175 19.7194 8.51118 20.1974 8.52116 20.5847L4.52249 20.6877L0.523812 20.7907C0.542003 21.4969 0.70686 22.2603 1.09879 22.9962L4.62925 21.1158ZM4.52249 20.6877L8.52116 20.5847C8.52701 20.8118 8.50539 21.3115 8.22842 21.903L4.60583 20.2069L0.983246 18.5108C0.585285 19.3607 0.508104 20.1809 0.523812 20.7907L4.52249 20.6877Z" fill="#E2CFCD" mask="url(#path-1-outside-1_125_38)"/>
</g>
<g filter="url(#filter1_n_125_38)">
<mask id="path-3-outside-2_125_38" maskUnits="userSpaceOnUse" x="43.4301" y="41.1623" width="38.9146" height="47.6759" fill="black">
<rect fill="white" x="43.4301" y="41.1623" width="38.9146" height="47.6759"/>
<path d="M52.3622 46.419C54.442 46.7604 56.5512 47.057 58.6897 47.309C60.6381 47.5385 62.6397 47.7261 64.6944 47.8718C64.7279 48.1328 64.7362 48.3345 64.7194 48.4771C64.7082 48.5721 64.656 48.7426 64.5628 48.9886C64.0838 48.9643 63.699 48.9591 63.4083 48.9731C63.1194 48.9712 62.7397 48.9907 62.2691 49.0316C61.8143 49.0744 61.457 49.1768 61.1969 49.3389C60.9528 49.5029 60.8148 49.7195 60.7831 49.9888C60.7663 50.1314 60.7951 50.4319 60.8696 50.8904L64.2795 63.4582L64.4221 63.475L70.4217 52.0157C70.6268 51.6384 70.7461 51.3071 70.7797 51.022C70.8656 50.2933 70.0051 49.7583 68.1983 49.4169C68.1648 49.156 68.1537 48.978 68.1649 48.883C68.1816 48.7404 68.2367 48.5461 68.3299 48.3001C70.1721 48.6135 71.3229 48.7973 71.7823 48.8514C73.1129 49.0082 74.8056 49.1594 76.8602 49.3051C76.9012 49.5027 76.9133 49.6727 76.8965 49.8153C76.8853 49.9103 76.8294 50.1125 76.7287 50.4219C74.7392 50.2678 73.3656 50.8849 72.6078 52.2733L63.1968 68.968L63.2443 68.9736L59.7921 75.5774C58.5077 78.028 57.3845 79.6543 56.4228 80.4565C55.4768 81.2605 54.3464 81.585 53.0316 81.4301C51.9703 81.3051 51.1205 80.8838 50.4823 80.1662C49.86 79.4504 49.6095 78.5777 49.7308 77.548C49.8409 76.6134 50.189 75.9076 50.7752 75.4306C51.3614 74.9536 52.0426 74.7608 52.8188 74.8523C53.5317 74.9362 54.053 75.2145 54.3828 75.687C54.7284 76.1613 54.8695 76.6678 54.8061 77.2064C54.7165 77.9668 54.305 78.5286 53.5716 78.8919C53.6097 79.2497 53.8506 79.4548 54.2941 79.507C54.801 79.5667 55.3108 79.3297 55.8234 78.7958C56.3341 78.2778 57.0569 77.1182 57.9919 75.3171L61.4272 68.8559L56.0936 50.3277C55.966 49.9112 55.7606 49.5416 55.4773 49.2192C55.196 48.8809 54.8349 48.6055 54.3942 48.3929C53.9712 48.1664 53.6129 48.0038 53.3194 47.9049C53.0278 47.7903 52.6648 47.6672 52.2306 47.5358C52.1822 47.4016 52.171 47.2236 52.1972 47.0018C52.2252 46.7642 52.2802 46.5699 52.3622 46.419Z"/>
</mask>
<path d="M52.3622 46.419C54.442 46.7604 56.5512 47.057 58.6897 47.309C60.6381 47.5385 62.6397 47.7261 64.6944 47.8718C64.7279 48.1328 64.7362 48.3345 64.7194 48.4771C64.7082 48.5721 64.656 48.7426 64.5628 48.9886C64.0838 48.9643 63.699 48.9591 63.4083 48.9731C63.1194 48.9712 62.7397 48.9907 62.2691 49.0316C61.8143 49.0744 61.457 49.1768 61.1969 49.3389C60.9528 49.5029 60.8148 49.7195 60.7831 49.9888C60.7663 50.1314 60.7951 50.4319 60.8696 50.8904L64.2795 63.4582L64.4221 63.475L70.4217 52.0157C70.6268 51.6384 70.7461 51.3071 70.7797 51.022C70.8656 50.2933 70.0051 49.7583 68.1983 49.4169C68.1648 49.156 68.1537 48.978 68.1649 48.883C68.1816 48.7404 68.2367 48.5461 68.3299 48.3001C70.1721 48.6135 71.3229 48.7973 71.7823 48.8514C73.1129 49.0082 74.8056 49.1594 76.8602 49.3051C76.9012 49.5027 76.9133 49.6727 76.8965 49.8153C76.8853 49.9103 76.8294 50.1125 76.7287 50.4219C74.7392 50.2678 73.3656 50.8849 72.6078 52.2733L63.1968 68.968L63.2443 68.9736L59.7921 75.5774C58.5077 78.028 57.3845 79.6543 56.4228 80.4565C55.4768 81.2605 54.3464 81.585 53.0316 81.4301C51.9703 81.3051 51.1205 80.8838 50.4823 80.1662C49.86 79.4504 49.6095 78.5777 49.7308 77.548C49.8409 76.6134 50.189 75.9076 50.7752 75.4306C51.3614 74.9536 52.0426 74.7608 52.8188 74.8523C53.5317 74.9362 54.053 75.2145 54.3828 75.687C54.7284 76.1613 54.8695 76.6678 54.8061 77.2064C54.7165 77.9668 54.305 78.5286 53.5716 78.8919C53.6097 79.2497 53.8506 79.4548 54.2941 79.507C54.801 79.5667 55.3108 79.3297 55.8234 78.7958C56.3341 78.2778 57.0569 77.1182 57.9919 75.3171L61.4272 68.8559L56.0936 50.3277C55.966 49.9112 55.7606 49.5416 55.4773 49.2192C55.196 48.8809 54.8349 48.6055 54.3942 48.3929C53.9712 48.1664 53.6129 48.0038 53.3194 47.9049C53.0278 47.7903 52.6648 47.6672 52.2306 47.5358C52.1822 47.4016 52.171 47.2236 52.1972 47.0018C52.2252 46.7642 52.2802 46.5699 52.3622 46.419Z" fill="black"/>
<path d="M52.3622 46.419L53.0101 42.4718L50.2049 42.0113L48.8476 44.5091L52.3622 46.419ZM64.6944 47.8718L68.6618 47.3624L68.2446 44.1135L64.9773 43.8819L64.6944 47.8718ZM64.5628 48.9886L64.3601 52.9835L67.2705 53.1312L68.3032 50.4061L64.5628 48.9886ZM63.4083 48.9731L63.3818 52.973L63.4908 52.9737L63.5997 52.9685L63.4083 48.9731ZM62.2691 49.0316L61.9225 45.0466L61.9084 45.0478L61.8943 45.0492L62.2691 49.0316ZM61.1969 49.3389L59.0808 45.9445L59.0233 45.9804L58.967 46.0182L61.1969 49.3389ZM60.8696 50.8904L56.9214 51.5317L56.9547 51.737L57.0092 51.9378L60.8696 50.8904ZM64.2795 63.4582L60.4191 64.5056L61.1269 67.1144L63.8115 67.4307L64.2795 63.4582ZM64.4221 63.475L63.9541 67.4475L66.6886 67.7697L67.9658 65.3303L64.4221 63.475ZM70.4217 52.0157L66.9071 50.1058L66.8924 50.133L66.878 50.1604L70.4217 52.0157ZM68.1983 49.4169L64.2309 49.9264L64.6009 52.808L67.4557 53.3474L68.1983 49.4169ZM68.3299 48.3001L69.0007 44.3568L65.7559 43.8048L64.5895 46.8826L68.3299 48.3001ZM76.8602 49.3051L80.7769 48.4929L80.1623 45.5292L77.1432 45.3151L76.8602 49.3051ZM76.7287 50.4219L76.4198 54.41L79.5581 54.653L80.5323 51.6599L76.7287 50.4219ZM72.6078 52.2733L76.0923 54.2375L76.1057 54.2137L76.1188 54.1897L72.6078 52.2733ZM63.1968 68.968L59.7123 67.0037L56.7619 72.2375L62.7288 72.9405L63.1968 68.968ZM63.2443 68.9736L66.7892 70.8266L69.4793 65.6805L63.7123 65.001L63.2443 68.9736ZM59.7921 75.5774L63.335 77.4344L63.337 77.4305L59.7921 75.5774ZM56.4228 80.4565L53.8608 77.3846L53.8464 77.3966L53.8322 77.4086L56.4228 80.4565ZM50.4823 80.1662L47.4638 82.7908L47.4785 82.8076L47.4933 82.8243L50.4823 80.1662ZM54.3828 75.687L51.1028 77.9764L51.126 78.0097L51.1499 78.0425L54.3828 75.687ZM53.5716 78.8919L51.7961 75.3075L49.2987 76.5446L49.5941 79.3159L53.5716 78.8919ZM55.8234 78.7958L52.975 75.9875L52.9564 76.0063L52.9381 76.0254L55.8234 78.7958ZM57.9919 75.3171L54.46 73.4393L54.4508 73.4568L54.4417 73.4743L57.9919 75.3171ZM61.4272 68.8559L64.959 70.7337L65.7188 69.3046L65.2711 67.7493L61.4272 68.8559ZM56.0936 50.3277L59.9375 49.2212L59.9281 49.1886L59.9182 49.1562L56.0936 50.3277ZM55.4773 49.2192L52.402 51.7769L52.4364 51.8184L52.472 51.8589L55.4773 49.2192ZM54.3942 48.3929L52.506 51.9192L52.5806 51.9592L52.6568 51.9959L54.3942 48.3929ZM53.3194 47.9049L51.8558 51.6276L51.9486 51.664L52.0431 51.6958L53.3194 47.9049ZM52.2306 47.5358L48.4682 48.8937L49.1498 50.7823L51.0716 51.3641L52.2306 47.5358ZM52.3622 46.419L51.7143 50.3661C53.8551 50.7176 56.0243 51.0226 58.2217 51.2815L58.6897 47.309L59.1577 43.3364C57.078 43.0914 55.0289 42.8032 53.0101 42.4718L52.3622 46.419ZM58.6897 47.309L58.2217 51.2815C60.2346 51.5186 62.298 51.7119 64.4114 51.8618L64.6944 47.8718L64.9773 43.8819C62.9814 43.7403 61.0416 43.5584 59.1577 43.3364L58.6897 47.309ZM64.6944 47.8718L60.727 48.3813C60.7332 48.4296 60.731 48.4268 60.7292 48.3843C60.7283 48.3615 60.7271 48.3192 60.7285 48.261C60.7299 48.2039 60.7341 48.1176 60.7469 48.0091L64.7194 48.4771L68.692 48.9451C68.7664 48.3131 68.7086 47.7267 68.6618 47.3624L64.6944 47.8718ZM64.7194 48.4771L60.7469 48.0091C60.7683 47.8278 60.7983 47.694 60.8127 47.6335C60.829 47.5652 60.8427 47.5198 60.8472 47.5052C60.8553 47.4785 60.8512 47.4951 60.8224 47.5711L64.5628 48.9886L68.3032 50.4061C68.3777 50.2096 68.6149 49.5996 68.692 48.9451L64.7194 48.4771ZM64.5628 48.9886L64.7655 44.9938C64.2275 44.9665 63.6954 44.9547 63.2168 44.9776L63.4083 48.9731L63.5997 52.9685C63.7026 52.9635 63.9402 52.9622 64.3601 52.9835L64.5628 48.9886ZM63.4083 48.9731L63.4347 44.9731C62.9685 44.9701 62.45 45.0007 61.9225 45.0466L62.2691 49.0316L62.6156 53.0165C63.0293 52.9806 63.2703 52.9722 63.3818 52.973L63.4083 48.9731ZM62.2691 49.0316L61.8943 45.0492C61.0998 45.1239 60.0625 45.3325 59.0808 45.9445L61.1969 49.3389L63.3131 52.7333C63.069 52.8855 62.8676 52.9555 62.7622 52.9856C62.6566 53.0159 62.6092 53.0172 62.6438 53.014L62.2691 49.0316ZM61.1969 49.3389L58.967 46.0182C57.8463 46.7708 56.9915 47.9852 56.8106 49.5208L60.7831 49.9888L64.7556 50.4568C64.7051 50.886 64.5569 51.3449 64.2844 51.7729C64.0169 52.1929 63.6967 52.4785 63.4269 52.6597L61.1969 49.3389ZM60.7831 49.9888L56.8106 49.5208C56.7493 50.0406 56.7918 50.5088 56.8104 50.7032C56.8363 50.9732 56.8767 51.2568 56.9214 51.5317L60.8696 50.8904L64.8179 50.249C64.8036 50.1615 64.7932 50.0913 64.7858 50.0366C64.7782 49.981 64.7749 49.9499 64.7738 49.939C64.7725 49.9248 64.7759 49.9549 64.7776 50.0167C64.7785 50.0491 64.7792 50.101 64.7772 50.168C64.7753 50.2327 64.7703 50.3326 64.7556 50.4568L60.7831 49.9888ZM60.8696 50.8904L57.0092 51.9378L60.4191 64.5056L64.2795 63.4582L68.1399 62.4108L64.7301 49.843L60.8696 50.8904ZM64.2795 63.4582L63.8115 67.4307L63.9541 67.4475L64.4221 63.475L64.8901 59.5024L64.7475 59.4857L64.2795 63.4582ZM64.4221 63.475L67.9658 65.3303L73.9654 53.8711L70.4217 52.0157L66.878 50.1604L60.8784 61.6196L64.4221 63.475ZM70.4217 52.0157L73.9363 53.9256C74.2754 53.3017 74.6372 52.4663 74.7522 51.49L70.7797 51.022L66.8072 50.554C66.833 50.3346 66.8804 50.188 66.9018 50.1286C66.9238 50.0674 66.9331 50.0581 66.9071 50.1058L70.4217 52.0157ZM70.7797 51.022L74.7522 51.49C75.0454 49.0018 73.4721 47.3993 72.3109 46.6773C71.2481 46.0165 70.0002 45.6866 68.9409 45.4865L68.1983 49.4169L67.4557 53.3474C67.7853 53.4097 68.0012 53.4679 68.1274 53.5094C68.2648 53.5545 68.2235 53.5562 68.0866 53.4711C67.9572 53.3906 67.5816 53.1329 67.2564 52.6022C66.8891 52.003 66.7224 51.2732 66.8072 50.554L70.7797 51.022ZM68.1983 49.4169L72.1657 48.9075C72.1554 48.8269 72.1552 48.8098 72.157 48.8376C72.1579 48.8529 72.1607 48.9002 72.1606 48.9705C72.1606 49.0326 72.1587 49.1698 72.1374 49.351L68.1649 48.883L64.1923 48.415C64.1152 49.0695 64.2041 49.7179 64.2309 49.9264L68.1983 49.4169ZM68.1649 48.883L72.1374 49.351C72.1246 49.4595 72.1086 49.5444 72.0967 49.6003C72.0846 49.6573 72.0736 49.6981 72.0674 49.7201C72.0558 49.761 72.053 49.7632 72.0703 49.7177L68.3299 48.3001L64.5895 46.8826C64.4593 47.2261 64.2668 47.783 64.1923 48.415L68.1649 48.883ZM68.3299 48.3001L67.659 52.2435C69.4628 52.5503 70.7298 52.7551 71.3142 52.8239L71.7823 48.8514L72.2503 44.8789C71.9159 44.8395 70.8814 44.6767 69.0007 44.3568L68.3299 48.3001ZM71.7823 48.8514L71.3142 52.8239C72.7298 52.9907 74.4898 53.1471 76.5773 53.2951L76.8602 49.3051L77.1432 45.3151C75.1213 45.1718 73.496 45.0257 72.2503 44.8789L71.7823 48.8514ZM76.8602 49.3051L72.9436 50.1173C72.9298 50.0508 72.8746 49.7661 72.924 49.3473L76.8965 49.8153L80.869 50.2833C80.952 49.5794 80.8727 48.9546 80.7769 48.4929L76.8602 49.3051ZM76.8965 49.8153L72.924 49.3473C72.935 49.2533 72.9476 49.1793 72.9561 49.1332C72.9649 49.085 72.9729 49.048 72.978 49.0254C72.9877 48.9822 72.9938 48.9614 72.991 48.9716C72.9889 48.9793 72.9828 49.0007 72.9711 49.0389C72.9596 49.0763 72.9445 49.1243 72.9251 49.1839L76.7287 50.4219L80.5323 51.6599C80.6007 51.4498 80.8024 50.8488 80.869 50.2833L76.8965 49.8153ZM76.7287 50.4219L77.0375 46.4338C75.5845 46.3213 74.0311 46.4628 72.5671 47.1205C71.0423 47.8056 69.8714 48.9377 69.0968 50.3568L72.6078 52.2733L76.1188 54.1897C76.1222 54.1835 76.0978 54.2285 76.0326 54.2898C75.9658 54.3527 75.8958 54.3953 75.8456 54.4179C75.7552 54.4585 75.8834 54.3684 76.4198 54.41L76.7287 50.4219ZM72.6078 52.2733L69.1233 50.309L59.7123 67.0037L63.1968 68.968L66.6813 70.9322L76.0923 54.2375L72.6078 52.2733ZM63.1968 68.968L62.7288 72.9405L62.7763 72.9461L63.2443 68.9736L63.7123 65.001L63.6648 64.9954L63.1968 68.968ZM63.2443 68.9736L59.6994 67.1205L56.2473 73.7244L59.7921 75.5774L63.337 77.4305L66.7892 70.8266L63.2443 68.9736ZM59.7921 75.5774L56.2493 73.7204C54.9846 76.1334 54.1655 77.1305 53.8608 77.3846L56.4228 80.4565L58.9848 83.5283C60.6036 82.1781 62.0308 79.9225 63.335 77.4344L59.7921 75.5774ZM56.4228 80.4565L53.8322 77.4086C53.7952 77.4401 53.7739 77.4523 53.7685 77.4552C53.7637 77.4578 53.7629 77.4579 53.7616 77.4582C53.7599 77.4587 53.7436 77.4634 53.7063 77.466C53.6679 77.4687 53.6007 77.4695 53.4996 77.4576L53.0316 81.4301L52.5636 85.4027C54.9 85.6779 57.1595 85.0799 59.0133 83.5043L56.4228 80.4565ZM53.0316 81.4301L53.4996 77.4576C53.432 77.4496 53.3921 77.4398 53.3748 77.4349C53.3581 77.4301 53.3601 77.4292 53.3751 77.4367C53.3906 77.4443 53.4109 77.4564 53.4319 77.4725C53.4529 77.4885 53.4661 77.5021 53.4713 77.508L50.4823 80.1662L47.4933 82.8243C48.8575 84.3582 50.6474 85.1769 52.5636 85.4027L53.0316 81.4301ZM50.4823 80.1662L53.5008 77.5415C53.5552 77.6041 53.6293 77.7212 53.6724 77.8711C53.7129 78.0123 53.696 78.078 53.7033 78.016L49.7308 77.548L45.7582 77.08C45.5188 79.1125 46.0284 81.1399 47.4638 82.7908L50.4823 80.1662ZM49.7308 77.548L53.7033 78.016C53.7152 77.9152 53.7244 77.9602 53.6618 78.0872C53.5923 78.228 53.4712 78.3938 53.2999 78.5332L50.7752 75.4306L48.2506 72.328C46.6708 73.6135 45.9586 75.379 45.7582 77.08L49.7308 77.548ZM50.7752 75.4306L53.2999 78.5332C53.1993 78.6151 53.0335 78.7153 52.815 78.7771C52.5995 78.8381 52.4304 78.8342 52.3508 78.8248L52.8188 74.8523L53.2869 70.8797C51.4777 70.6666 49.7073 71.1426 48.2506 72.328L50.7752 75.4306ZM52.8188 74.8523L52.3508 78.8248C52.3153 78.8206 52.1237 78.793 51.8611 78.6528C51.5796 78.5026 51.3085 78.2712 51.1028 77.9764L54.3828 75.687L57.6628 73.3976C56.5239 71.7658 54.8339 71.062 53.2869 70.8797L52.8188 74.8523ZM54.3828 75.687L51.1499 78.0425C51.0735 77.9377 50.9665 77.7543 50.8946 77.496C50.8211 77.2322 50.8064 76.9692 50.8335 76.7384L54.8061 77.2064L58.7786 77.6744C58.9701 76.0487 58.5015 74.5471 57.6157 73.3314L54.3828 75.687ZM54.8061 77.2064L50.8335 76.7384C50.8613 76.5029 50.9614 76.1647 51.2032 75.8345C51.4377 75.5144 51.6887 75.3607 51.7961 75.3075L53.5716 78.8919L55.3471 82.4762C57.1927 81.562 58.5181 79.8854 58.7786 77.6744L54.8061 77.2064ZM53.5716 78.8919L49.5941 79.3159C49.7057 80.3624 50.1784 81.5004 51.1879 82.3598C52.11 83.1449 53.1303 83.3976 53.8261 83.4796L54.2941 79.507L54.7621 75.5345C55.0144 75.5642 55.6925 75.6883 56.3738 76.2683C57.1424 76.9226 57.4756 77.7792 57.549 78.4679L53.5716 78.8919ZM54.2941 79.507L53.8261 83.4796C56.0662 83.7435 57.738 82.5772 58.7087 81.5662L55.8234 78.7958L52.9381 76.0254C52.9221 76.0421 53.0583 75.8919 53.3698 75.7471C53.7169 75.5857 54.2057 75.4689 54.7621 75.5345L54.2941 79.507ZM55.8234 78.7958L58.6718 81.6041C59.6691 80.5926 60.6411 78.8957 61.5421 77.16L57.9919 75.3171L54.4417 73.4743C54.0018 74.3217 53.6405 74.9622 53.3541 75.4216C53.038 75.9287 52.9154 76.048 52.975 75.9875L55.8234 78.7958ZM57.9919 75.3171L61.5237 77.195L64.959 70.7337L61.4272 68.8559L57.8954 66.9781L54.46 73.4393L57.9919 75.3171ZM61.4272 68.8559L65.2711 67.7493L59.9375 49.2212L56.0936 50.3277L52.2497 51.4342L57.5833 69.9624L61.4272 68.8559ZM56.0936 50.3277L59.9182 49.1562C59.6272 48.2062 59.1457 47.3344 58.4827 46.5795L55.4773 49.2192L52.472 51.8589C52.4286 51.8094 52.3854 51.7495 52.3477 51.6817C52.3101 51.6139 52.2848 51.5509 52.269 51.4992L56.0936 50.3277ZM55.4773 49.2192L58.5527 46.6614C57.8662 45.836 57.0299 45.2231 56.1317 44.79L54.3942 48.3929L52.6568 51.9959C52.6525 51.9938 52.6195 51.9773 52.5695 51.9392C52.5185 51.9003 52.4597 51.8463 52.402 51.7769L55.4773 49.2192ZM54.3942 48.3929L56.2824 44.8666C55.7573 44.5855 55.1817 44.3113 54.5958 44.114L53.3194 47.9049L52.0431 51.6958C52.0328 51.6924 52.0675 51.7037 52.1546 51.7432C52.2394 51.7817 52.3554 51.8386 52.506 51.9192L54.3942 48.3929ZM53.3194 47.9049L54.783 44.1823C54.358 44.0152 53.8856 43.8575 53.3897 43.7074L52.2306 47.5358L51.0716 51.3641C51.444 51.4769 51.6975 51.5653 51.8558 51.6276L53.3194 47.9049ZM52.2306 47.5358L55.9931 46.1778C56.1249 46.5432 56.1656 46.8522 56.1781 47.0515C56.1907 47.2529 56.178 47.3991 56.1697 47.4698L52.1972 47.0018L48.2246 46.5338C48.1628 47.0584 48.1229 47.9372 48.4682 48.8937L52.2306 47.5358ZM52.1972 47.0018L56.1697 47.4698C56.1599 47.5532 56.1129 47.8943 55.8768 48.3289L52.3622 46.419L48.8476 44.5091C48.4474 45.2455 48.2904 45.9752 48.2246 46.5338L52.1972 47.0018Z" fill="#E2CFCD" mask="url(#path-3-outside-2_125_38)"/>
</g>
<g filter="url(#filter2_n_125_38)">
<mask id="path-5-outside-3_125_38" maskUnits="userSpaceOnUse" x="96.6213" y="31.4673" width="61.1389" height="46.5302" fill="black">
<rect fill="white" x="96.6213" y="31.4673" width="61.1389" height="46.5302"/>
<path d="M100.84 37.7345C104.256 37.7741 106.936 37.7689 108.881 37.7188C110.747 37.6707 112.802 37.554 115.047 37.3685C115.118 37.622 115.154 37.7965 115.156 37.8922C115.161 38.0676 115.134 38.2677 115.076 38.4926C113.691 38.5921 112.738 38.7922 112.22 39.0928C111.716 39.377 111.47 39.7423 111.482 40.1888C111.485 40.3163 111.505 40.4674 111.541 40.642C111.593 40.8002 115.036 48.7133 121.87 64.3814L122.109 64.3753L126.453 51.8178L121.969 41.2589C121.254 39.5541 119.627 38.6147 117.085 38.4409C117.014 38.1555 116.977 37.957 116.974 37.8454C116.97 37.6859 116.997 37.5097 117.056 37.3167C119.308 37.3864 121.805 37.3859 124.547 37.3152C127.067 37.2503 129.449 37.1251 131.694 36.9397C131.764 37.1931 131.801 37.3677 131.803 37.4634C131.808 37.6388 131.781 37.8389 131.723 38.0638C129.795 38.1773 128.547 38.361 127.98 38.615C127.427 38.8526 127.159 39.2903 127.176 39.9281C127.176 39.944 127.298 40.3398 127.541 41.1154L136.962 63.9926L137.201 63.9865L145.328 40.346C145.418 40.1044 145.458 39.7922 145.448 39.4095C145.435 38.8993 145.114 38.5406 144.487 38.3333C143.859 38.1102 142.841 37.937 141.434 37.8136C141.361 37.4645 141.323 37.2501 141.321 37.1703C141.318 37.0428 141.346 36.8825 141.405 36.6895C143.368 36.7347 145.243 36.7342 147.029 36.6882C148.767 36.6435 150.48 36.5515 152.168 36.4122C152.236 36.6019 152.272 36.7606 152.276 36.8881C152.282 37.1433 152.256 37.3593 152.197 37.5364C151.067 37.6772 150.133 37.9406 149.393 38.3266C148.669 38.7123 148.111 39.3649 147.72 40.2844L136.397 72.6952L135.32 72.7229L127.652 54.6829L121.304 73.0839L120.228 73.1117L106.278 41.6631C105.533 39.991 103.73 39.0561 100.869 38.8586C100.798 38.5732 100.761 38.3747 100.758 38.2631C100.754 38.1037 100.781 37.9275 100.84 37.7345Z"/>
</mask>
<path d="M100.84 37.7345C104.256 37.7741 106.936 37.7689 108.881 37.7188C110.747 37.6707 112.802 37.554 115.047 37.3685C115.118 37.622 115.154 37.7965 115.156 37.8922C115.161 38.0676 115.134 38.2677 115.076 38.4926C113.691 38.5921 112.738 38.7922 112.22 39.0928C111.716 39.377 111.47 39.7423 111.482 40.1888C111.485 40.3163 111.505 40.4674 111.541 40.642C111.593 40.8002 115.036 48.7133 121.87 64.3814L122.109 64.3753L126.453 51.8178L121.969 41.2589C121.254 39.5541 119.627 38.6147 117.085 38.4409C117.014 38.1555 116.977 37.957 116.974 37.8454C116.97 37.6859 116.997 37.5097 117.056 37.3167C119.308 37.3864 121.805 37.3859 124.547 37.3152C127.067 37.2503 129.449 37.1251 131.694 36.9397C131.764 37.1931 131.801 37.3677 131.803 37.4634C131.808 37.6388 131.781 37.8389 131.723 38.0638C129.795 38.1773 128.547 38.361 127.98 38.615C127.427 38.8526 127.159 39.2903 127.176 39.9281C127.176 39.944 127.298 40.3398 127.541 41.1154L136.962 63.9926L137.201 63.9865L145.328 40.346C145.418 40.1044 145.458 39.7922 145.448 39.4095C145.435 38.8993 145.114 38.5406 144.487 38.3333C143.859 38.1102 142.841 37.937 141.434 37.8136C141.361 37.4645 141.323 37.2501 141.321 37.1703C141.318 37.0428 141.346 36.8825 141.405 36.6895C143.368 36.7347 145.243 36.7342 147.029 36.6882C148.767 36.6435 150.48 36.5515 152.168 36.4122C152.236 36.6019 152.272 36.7606 152.276 36.8881C152.282 37.1433 152.256 37.3593 152.197 37.5364C151.067 37.6772 150.133 37.9406 149.393 38.3266C148.669 38.7123 148.111 39.3649 147.72 40.2844L136.397 72.6952L135.32 72.7229L127.652 54.6829L121.304 73.0839L120.228 73.1117L106.278 41.6631C105.533 39.991 103.73 39.0561 100.869 38.8586C100.798 38.5732 100.761 38.3747 100.758 38.2631C100.754 38.1037 100.781 37.9275 100.84 37.7345Z" fill="black"/>
<path d="M100.84 37.7345L100.886 33.7347L97.8885 33.6999L97.0139 36.5677L100.84 37.7345ZM115.047 37.3685L118.901 36.2987L118.016 33.1095L114.718 33.3821L115.047 37.3685ZM115.076 38.4926L115.363 42.4823L118.231 42.2764L118.949 39.4921L115.076 38.4926ZM112.22 39.0928L114.187 42.5757L114.206 42.5649L114.225 42.5538L112.22 39.0928ZM111.541 40.642L107.626 41.4586L107.671 41.6774L107.741 41.8896L111.541 40.642ZM121.87 64.3814L118.204 65.9806L119.28 68.4495L121.973 68.3801L121.87 64.3814ZM122.109 64.3753L122.212 68.3739L124.983 68.3026L125.889 65.6828L122.109 64.3753ZM126.453 51.8178L130.233 53.1254L130.736 51.6709L130.135 50.2542L126.453 51.8178ZM121.969 41.2589L118.279 42.8042L118.283 42.8134L118.287 42.8225L121.969 41.2589ZM117.085 38.4409L113.204 39.4089L113.908 42.2329L116.812 42.4315L117.085 38.4409ZM117.056 37.3167L117.18 33.3186L114.122 33.2241L113.23 36.15L117.056 37.3167ZM131.694 36.9397L135.548 35.8699L134.663 32.6807L131.365 32.9532L131.694 36.9397ZM131.723 38.0638L131.958 42.0569L134.868 41.8856L135.596 39.0633L131.723 38.0638ZM127.98 38.615L129.56 42.2894L129.587 42.2781L129.613 42.2664L127.98 38.615ZM127.541 41.1154L123.725 42.3129L123.777 42.4783L123.843 42.6385L127.541 41.1154ZM136.962 63.9926L133.264 65.5158L134.312 68.0622L137.065 67.9913L136.962 63.9926ZM137.201 63.9865L137.304 67.9852L140.081 67.9136L140.984 65.2869L137.201 63.9865ZM145.328 40.346L141.577 38.9566L141.561 39.0009L141.546 39.0456L145.328 40.346ZM144.487 38.3333L143.147 42.1025L143.19 42.1176L143.233 42.1317L144.487 38.3333ZM141.434 37.8136L137.518 38.6303L138.124 41.539L141.084 41.7984L141.434 37.8136ZM141.405 36.6895L141.497 32.6906L138.464 32.6208L137.579 35.5227L141.405 36.6895ZM152.168 36.4122L155.929 35.05L154.887 32.1744L151.839 32.4258L152.168 36.4122ZM152.197 37.5364L152.691 41.5057L155.19 41.1941L155.99 38.8061L152.197 37.5364ZM149.393 38.3266L147.543 34.7802L147.528 34.7881L147.512 34.7962L149.393 38.3266ZM147.72 40.2844L144.039 38.7187L143.987 38.8403L143.944 38.9651L147.72 40.2844ZM136.397 72.6952L136.5 76.6938L139.262 76.6227L140.173 74.0144L136.397 72.6952ZM135.32 72.7229L131.639 74.2878L132.703 76.7916L135.423 76.7216L135.32 72.7229ZM127.652 54.6829L131.333 53.1181L127.263 43.5435L123.87 53.3786L127.652 54.6829ZM121.304 73.0839L121.407 77.0826L124.181 77.0112L125.086 74.3883L121.304 73.0839ZM120.228 73.1117L116.572 74.7336L117.657 77.1792L120.331 77.1103L120.228 73.1117ZM106.278 41.6631L109.935 40.0412L109.932 40.035L106.278 41.6631ZM100.869 38.8586L96.9878 39.8266L97.6917 42.6488L100.593 42.8491L100.869 38.8586ZM100.84 37.7345L100.794 41.7342C104.228 41.7741 106.966 41.7695 108.984 41.7175L108.881 37.7188L108.778 33.7201C106.906 33.7683 104.283 33.7742 100.886 33.7347L100.84 37.7345ZM108.881 37.7188L108.984 41.7175C110.939 41.6671 113.071 41.5454 115.377 41.3549L115.047 37.3685L114.718 33.3821C112.533 33.5625 110.555 33.6744 108.778 33.7201L108.881 37.7188ZM115.047 37.3685L111.193 38.4382C111.215 38.5165 111.217 38.5334 111.212 38.5062C111.208 38.4911 111.199 38.4448 111.189 38.3752C111.18 38.3136 111.162 38.1776 111.158 37.9952L115.156 37.8922L119.155 37.7892C119.138 37.1304 118.958 36.5013 118.901 36.2987L115.047 37.3685ZM115.156 37.8922L111.158 37.9952C111.15 37.7014 111.196 37.5194 111.203 37.4931L115.076 38.4926L118.949 39.4921C119.072 39.0161 119.172 38.4338 119.155 37.7892L115.156 37.8922ZM115.076 38.4926L114.79 34.5029C113.395 34.6031 111.605 34.8261 110.214 35.6317L112.22 39.0928L114.225 42.5538C114.145 42.6003 114.082 42.6301 114.043 42.6471C114.004 42.6643 113.981 42.6721 113.979 42.6729C113.977 42.6733 114.028 42.6566 114.145 42.6318C114.388 42.5809 114.781 42.5241 115.363 42.4823L115.076 38.4926ZM112.22 39.0928L110.253 35.6098C108.904 36.3714 107.422 37.9188 107.483 40.2918L111.482 40.1888L115.481 40.0858C115.496 40.6805 115.324 41.2963 114.976 41.8133C114.661 42.2819 114.314 42.5039 114.187 42.5757L112.22 39.0928ZM111.482 40.1888L107.483 40.2918C107.495 40.7326 107.558 41.134 107.626 41.4586L111.541 40.642L115.457 39.8253C115.456 39.8199 115.46 39.8381 115.465 39.8767C115.47 39.9142 115.478 39.986 115.481 40.0858L111.482 40.1888ZM111.541 40.642L107.741 41.8896C107.783 42.0169 107.825 42.1216 107.825 42.1221C107.837 42.1528 107.848 42.1801 107.856 42.1984C107.871 42.2363 107.889 42.2779 107.906 42.3176C107.94 42.3992 107.987 42.5087 108.044 42.642C108.159 42.9103 108.327 43.2985 108.546 43.8041C108.984 44.8163 109.634 46.3125 110.495 48.2913C112.217 52.2496 114.787 58.1463 118.204 65.9806L121.87 64.3814L125.537 62.7823C122.12 54.9485 119.551 49.0545 117.83 45.0997C116.97 43.1219 116.322 41.6309 115.887 40.6253C115.669 40.1219 115.506 39.7436 115.396 39.4877C115.341 39.3589 115.301 39.2668 115.276 39.2074C115.2 39.0259 115.279 39.2021 115.342 39.3943L111.541 40.642ZM121.87 64.3814L121.973 68.3801L122.212 68.3739L122.109 64.3753L122.006 60.3766L121.767 60.3828L121.87 64.3814ZM122.109 64.3753L125.889 65.6828L130.233 53.1254L126.453 51.8178L122.673 50.5103L118.329 63.0677L122.109 64.3753ZM126.453 51.8178L130.135 50.2542L125.65 39.6953L121.969 41.2589L118.287 42.8225L122.771 53.3815L126.453 51.8178ZM121.969 41.2589L125.658 39.7136C124.142 36.0932 120.75 34.6823 117.358 34.4502L117.085 38.4409L116.812 42.4315C117.68 42.4909 118.08 42.6636 118.213 42.7403C118.27 42.7736 118.278 42.7881 118.267 42.7759C118.256 42.763 118.262 42.7635 118.279 42.8042L121.969 41.2589ZM117.085 38.4409L120.966 37.4729C120.942 37.3763 120.935 37.3385 120.936 37.3445C120.937 37.3488 120.943 37.3812 120.95 37.4349C120.954 37.4628 120.958 37.5019 120.962 37.5502C120.966 37.5978 120.971 37.6631 120.973 37.7424L116.974 37.8454L112.975 37.9484C112.991 38.5568 113.141 39.1546 113.204 39.4089L117.085 38.4409ZM116.974 37.8454L120.973 37.7424C120.982 38.1092 120.917 38.3691 120.882 38.4835L117.056 37.3167L113.23 36.15C113.078 36.6504 112.958 37.2626 112.975 37.9484L116.974 37.8454ZM117.056 37.3167L116.933 41.3148C119.274 41.3872 121.848 41.3861 124.651 41.3139L124.547 37.3152L124.444 33.3165C121.762 33.3857 119.342 33.3855 117.18 33.3186L117.056 37.3167ZM124.547 37.3152L124.651 41.3139C127.237 41.2473 129.695 41.1185 132.023 40.9261L131.694 36.9397L131.365 32.9532C129.203 33.1318 126.897 33.2534 124.444 33.3165L124.547 37.3152ZM131.694 36.9397L127.84 38.0094C127.861 38.0877 127.864 38.1046 127.858 38.0773C127.855 38.0623 127.846 38.0159 127.836 37.9463C127.827 37.8848 127.809 37.7488 127.805 37.5664L131.803 37.4634L135.802 37.3604C135.785 36.7016 135.605 36.0725 135.548 35.8699L131.694 36.9397ZM131.803 37.4634L127.805 37.5664C127.797 37.2726 127.843 37.0905 127.85 37.0643L131.723 38.0638L135.596 39.0633C135.719 38.5873 135.819 38.005 135.802 37.3604L131.803 37.4634ZM131.723 38.0638L131.488 34.0707C130.462 34.1311 129.541 34.2141 128.759 34.3294C128.064 34.4317 127.156 34.6015 126.347 34.9635L127.98 38.615L129.613 42.2664C129.449 42.3395 129.376 42.349 129.47 42.3263C129.548 42.3076 129.693 42.278 129.924 42.244C130.389 42.1755 131.056 42.11 131.958 42.0569L131.723 38.0638ZM127.98 38.615L126.399 34.9405C125.497 35.3284 124.589 35.994 123.953 37.033C123.328 38.0542 123.154 39.1282 123.177 40.0311L127.176 39.9281L131.174 39.8251C131.181 40.0902 131.133 40.6265 130.776 41.2099C130.408 41.8112 129.91 42.1391 129.56 42.2894L127.98 38.615ZM127.176 39.9281L123.177 40.0311C123.183 40.2763 123.212 40.4663 123.221 40.5273C123.234 40.6133 123.247 40.682 123.255 40.7215C123.271 40.8006 123.286 40.8628 123.293 40.8907C123.308 40.9512 123.321 41.0005 123.327 41.0216C123.341 41.0705 123.355 41.1175 123.364 41.1503C123.386 41.2214 123.413 41.3119 123.445 41.4142C123.509 41.6225 123.603 41.9235 123.725 42.3129L127.541 41.1154L131.358 39.9178C131.237 39.5317 131.148 39.247 131.09 39.0595C131.061 38.964 131.043 38.9041 131.033 38.8723C131.028 38.8535 131.03 38.861 131.036 38.8821C131.038 38.8889 131.041 38.9 131.045 38.9142C131.048 38.9274 131.054 38.9507 131.062 38.9804C131.065 38.9957 131.07 39.0161 131.076 39.0404C131.081 39.0638 131.089 39.0982 131.097 39.1399C131.105 39.1781 131.118 39.2458 131.131 39.3309C131.137 39.3746 131.146 39.4356 131.154 39.5088C131.161 39.5776 131.171 39.6883 131.174 39.8251L127.176 39.9281ZM127.541 41.1154L123.843 42.6385L133.264 65.5158L136.962 63.9926L140.661 62.4695L131.24 39.5923L127.541 41.1154ZM136.962 63.9926L137.065 67.9913L137.304 67.9852L137.201 63.9865L137.098 59.9878L136.859 59.994L136.962 63.9926ZM137.201 63.9865L140.984 65.2869L149.111 41.6464L145.328 40.346L141.546 39.0456L133.419 62.6861L137.201 63.9865ZM145.328 40.346L149.079 41.7355C149.409 40.8438 149.464 39.9739 149.446 39.3065L145.448 39.4095L141.449 39.5125C141.45 39.5422 141.447 39.5081 141.457 39.4245C141.468 39.3425 141.496 39.1755 141.577 38.9566L145.328 40.346ZM145.448 39.4095L149.446 39.3065C149.417 38.1671 149.013 37.0248 148.181 36.0933C147.411 35.2311 146.482 34.7798 145.741 34.535L144.487 38.3333L143.233 42.1317C143.119 42.0941 142.664 41.9257 142.214 41.4223C141.703 40.8495 141.465 40.1417 141.449 39.5125L145.448 39.4095ZM144.487 38.3333L145.826 34.5642C144.688 34.1599 143.239 33.9565 141.783 33.8289L141.434 37.8136L141.084 41.7984C141.716 41.8538 142.21 41.9161 142.581 41.9793C142.765 42.0106 142.904 42.0397 143.006 42.0641C143.11 42.0891 143.152 42.1041 143.147 42.1025L144.487 38.3333ZM141.434 37.8136L145.349 36.997C145.334 36.9222 145.321 36.86 145.311 36.8091C145.301 36.7574 145.295 36.7231 145.291 36.7031C145.29 36.6934 145.289 36.69 145.289 36.692C145.29 36.6934 145.291 36.7045 145.294 36.7232C145.296 36.7406 145.301 36.7758 145.305 36.8239C145.308 36.8486 145.311 36.8808 145.313 36.9192C145.316 36.9569 145.318 37.0073 145.32 37.0673L141.321 37.1703L137.323 37.2733C137.332 37.6495 137.397 37.9999 137.411 38.0788C137.44 38.2474 137.477 38.4362 137.518 38.6303L141.434 37.8136ZM141.321 37.1703L145.32 37.0673C145.327 37.3271 145.3 37.5252 145.281 37.6376C145.261 37.7542 145.239 37.8301 145.231 37.8563L141.405 36.6895L137.579 35.5227C137.458 35.917 137.304 36.541 137.323 37.2733L141.321 37.1703ZM141.405 36.6895L141.313 40.6884C143.335 40.7349 145.275 40.7347 147.132 40.6869L147.029 36.6882L146.926 32.6895C145.211 32.7337 143.402 32.7344 141.497 32.6906L141.405 36.6895ZM147.029 36.6882L147.132 40.6869C148.943 40.6402 150.732 40.5443 152.496 40.3987L152.168 36.4122L151.839 32.4258C150.228 32.5586 148.591 32.6467 146.926 32.6895L147.029 36.6882ZM152.168 36.4122L148.407 37.7745C148.397 37.7487 148.372 37.6741 148.345 37.5587C148.32 37.4474 148.284 37.2509 148.277 36.9911L152.276 36.8881L156.274 36.7851C156.255 36.0528 156.069 35.4376 155.929 35.05L152.168 36.4122ZM152.276 36.8881L148.277 36.9911C148.276 36.9395 148.271 36.6611 148.404 36.2667L152.197 37.5364L155.99 38.8061C156.24 38.0576 156.289 37.347 156.274 36.7851L152.276 36.8881ZM152.197 37.5364L151.702 33.5671C150.26 33.7469 148.829 34.1094 147.543 34.7802L149.393 38.3266L151.243 41.873C151.437 41.7718 151.875 41.6074 152.691 41.5057L152.197 37.5364ZM149.393 38.3266L147.512 34.7962C145.816 35.6995 144.708 37.1473 144.039 38.7187L147.72 40.2844L151.401 41.8502C151.463 41.7051 151.498 41.6744 151.473 41.7037C151.46 41.7185 151.436 41.7441 151.399 41.774C151.362 41.8042 151.319 41.8328 151.273 41.8571L149.393 38.3266ZM147.72 40.2844L143.944 38.9651L132.62 71.3759L136.397 72.6952L140.173 74.0144L151.496 41.6037L147.72 40.2844ZM136.397 72.6952L136.294 68.6965L135.217 68.7242L135.32 72.7229L135.423 76.7216L136.5 76.6938L136.397 72.6952ZM135.32 72.7229L139.001 71.158L131.333 53.1181L127.652 54.6829L123.97 56.2478L131.639 74.2878L135.32 72.7229ZM127.652 54.6829L123.87 53.3786L117.523 71.7796L121.304 73.0839L125.086 74.3883L131.433 55.9873L127.652 54.6829ZM121.304 73.0839L121.201 69.0853L120.125 69.113L120.228 73.1117L120.331 77.1103L121.407 77.0826L121.304 73.0839ZM120.228 73.1117L123.885 71.4898L109.935 40.0412L106.278 41.6631L102.622 43.285L116.572 74.7336L120.228 73.1117ZM106.278 41.6631L109.932 40.035C108.288 36.3454 104.575 35.105 101.144 34.8681L100.869 38.8586L100.593 42.8491C101.687 42.9246 102.268 43.125 102.526 43.259C102.717 43.3578 102.662 43.3743 102.625 43.2912L106.278 41.6631ZM100.869 38.8586L104.75 37.8906C104.726 37.794 104.719 37.7563 104.72 37.7622C104.721 37.7666 104.727 37.799 104.734 37.8527C104.737 37.8805 104.742 37.9196 104.746 37.9679C104.75 38.0155 104.754 38.0809 104.757 38.1601L100.758 38.2631L96.7592 38.3661C96.7749 38.9745 96.9244 39.5724 96.9878 39.8266L100.869 38.8586ZM100.758 38.2631L104.757 38.1601C104.766 38.527 104.701 38.7868 104.666 38.9012L100.84 37.7345L97.0139 36.5677C96.8613 37.0681 96.7415 37.6804 96.7592 38.3661L100.758 38.2631Z" fill="#E2CFCD" mask="url(#path-5-outside-3_125_38)"/>
</g>
<g filter="url(#filter3_n_125_38)">
<mask id="path-7-outside-4_125_38" maskUnits="userSpaceOnUse" x="146.256" y="54.0152" width="30.8618" height="31.8332" fill="black">
<rect fill="white" x="146.256" y="54.0152" width="30.8618" height="31.8332"/>
<path d="M161.601 58.6812C163.18 58.6367 164.607 58.8757 165.882 59.3982C167.173 59.9203 168.279 60.663 169.2 61.6264C170.121 62.5898 170.84 63.7583 171.357 65.1319C171.874 66.4896 172.156 67.9817 172.201 69.608C172.295 72.9244 171.438 75.6452 169.631 77.7706C167.841 79.9114 165.375 81.0261 162.234 81.1147C160.671 81.1587 159.245 80.9277 157.954 80.4215C156.678 79.899 155.58 79.1561 154.66 78.1927C153.738 77.2134 153.011 76.0451 152.478 74.6878C151.961 73.3301 151.68 71.8302 151.633 70.1879C151.588 68.5616 151.785 67.0561 152.224 65.6714C152.663 64.2708 153.308 63.0638 154.157 62.0506C155.022 61.0369 156.084 60.233 157.344 59.639C158.604 59.045 160.023 58.7257 161.601 58.6812ZM161.645 60.2358C160.019 60.2816 158.742 61.1075 157.813 62.7134C156.901 64.3188 156.492 66.7638 156.584 70.0483C156.677 73.3328 157.224 75.7508 158.225 77.3023C159.241 78.8374 160.563 79.582 162.189 79.5362C163.816 79.4903 165.085 78.6647 165.997 77.0592C166.925 75.4533 167.343 73.0161 167.251 69.7476C167.204 68.1053 167.037 66.6819 166.747 65.4773C166.458 64.2728 166.071 63.2784 165.586 62.4942C165.101 61.7101 164.527 61.1359 163.862 60.7716C163.197 60.3915 162.458 60.2128 161.645 60.2358Z"/>
</mask>
<path d="M161.601 58.6812C163.18 58.6367 164.607 58.8757 165.882 59.3982C167.173 59.9203 168.279 60.663 169.2 61.6264C170.121 62.5898 170.84 63.7583 171.357 65.1319C171.874 66.4896 172.156 67.9817 172.201 69.608C172.295 72.9244 171.438 75.6452 169.631 77.7706C167.841 79.9114 165.375 81.0261 162.234 81.1147C160.671 81.1587 159.245 80.9277 157.954 80.4215C156.678 79.899 155.58 79.1561 154.66 78.1927C153.738 77.2134 153.011 76.0451 152.478 74.6878C151.961 73.3301 151.68 71.8302 151.633 70.1879C151.588 68.5616 151.785 67.0561 152.224 65.6714C152.663 64.2708 153.308 63.0638 154.157 62.0506C155.022 61.0369 156.084 60.233 157.344 59.639C158.604 59.045 160.023 58.7257 161.601 58.6812ZM161.645 60.2358C160.019 60.2816 158.742 61.1075 157.813 62.7134C156.901 64.3188 156.492 66.7638 156.584 70.0483C156.677 73.3328 157.224 75.7508 158.225 77.3023C159.241 78.8374 160.563 79.582 162.189 79.5362C163.816 79.4903 165.085 78.6647 165.997 77.0592C166.925 75.4533 167.343 73.0161 167.251 69.7476C167.204 68.1053 167.037 66.6819 166.747 65.4773C166.458 64.2728 166.071 63.2784 165.586 62.4942C165.101 61.7101 164.527 61.1359 163.862 60.7716C163.197 60.3915 162.458 60.2128 161.645 60.2358Z" fill="black"/>
<path d="M165.882 59.3982L164.365 63.0996L164.374 63.1031L164.383 63.1066L165.882 59.3982ZM171.357 65.1319L167.614 66.542L167.616 66.5487L167.619 66.5553L171.357 65.1319ZM169.631 77.7706L166.584 75.1796L166.573 75.1919L166.563 75.2042L169.631 77.7706ZM157.954 80.4215L156.437 84.1229L156.465 84.1344L156.494 84.1455L157.954 80.4215ZM154.66 78.1927L151.746 80.9334L151.757 80.945L151.768 80.9564L154.66 78.1927ZM152.478 74.6878L148.74 76.1113L148.748 76.1306L148.755 76.1498L152.478 74.6878ZM152.224 65.6714L156.037 66.8819L156.039 66.8751L156.041 66.8683L152.224 65.6714ZM154.157 62.0506L151.114 59.4542L151.102 59.4678L151.091 59.4815L154.157 62.0506ZM157.813 62.7134L154.35 60.7119L154.343 60.7246L154.336 60.7374L157.813 62.7134ZM158.225 77.3023L154.864 79.4711L154.877 79.4911L154.89 79.511L158.225 77.3023ZM165.997 77.0592L162.534 75.0577L162.526 75.0705L162.519 75.0833L165.997 77.0592ZM163.862 60.7716L161.877 64.2441L161.908 64.262L161.94 64.2793L163.862 60.7716ZM161.601 58.6812L161.714 62.6796C162.816 62.6486 163.676 62.8174 164.365 63.0996L165.882 59.3982L167.398 55.6969C165.537 54.9341 163.544 54.6248 161.488 54.6828L161.601 58.6812ZM165.882 59.3982L164.383 63.1066C165.172 63.4259 165.797 63.8553 166.308 64.3901L169.2 61.6264L172.092 58.8627C170.761 57.4707 169.174 56.4147 167.381 55.6899L165.882 59.3982ZM169.2 61.6264L166.308 64.3901C166.821 64.9264 167.267 65.6209 167.614 66.542L171.357 65.1319L175.1 63.7219C174.413 61.8957 173.421 60.2532 172.092 58.8627L169.2 61.6264ZM171.357 65.1319L167.619 66.5553C167.958 67.4468 168.168 68.4895 168.203 69.7207L172.201 69.608L176.2 69.4952C176.143 67.4738 175.79 65.5325 175.095 63.7085L171.357 65.1319ZM172.201 69.608L168.203 69.7207C168.274 72.2468 167.633 73.9451 166.584 75.1796L169.631 77.7706L172.679 80.3616C175.243 77.3453 176.316 73.6019 176.2 69.4952L172.201 69.608ZM169.631 77.7706L166.563 75.2042C165.604 76.3506 164.278 77.0554 162.121 77.1163L162.234 81.1147L162.346 85.1131C166.472 84.9968 170.077 83.4722 172.699 80.3369L169.631 77.7706ZM162.234 81.1147L162.121 77.1163C161.028 77.1471 160.144 76.984 159.414 76.6976L157.954 80.4215L156.494 84.1455C158.345 84.8714 160.315 85.1704 162.346 85.1131L162.234 81.1147ZM157.954 80.4215L159.47 76.7202C158.696 76.4029 158.071 75.9728 157.551 75.429L154.66 78.1927L151.768 80.9564C153.09 82.3393 154.661 83.3952 156.437 84.1229L157.954 80.4215ZM154.66 78.1927L157.573 75.452C157.029 74.8738 156.564 74.1496 156.202 73.2259L152.478 74.6878L148.755 76.1498C149.458 77.9406 150.448 79.553 151.746 80.9334L154.66 78.1927ZM152.478 74.6878L156.217 73.2644C155.879 72.3769 155.667 71.327 155.632 70.0752L151.633 70.1879L147.635 70.3006C147.692 72.3333 148.044 74.2834 148.74 76.1113L152.478 74.6878ZM151.633 70.1879L155.632 70.0752C155.597 68.844 155.748 67.7911 156.037 66.8819L152.224 65.6714L148.412 64.4609C147.821 66.3211 147.578 68.2792 147.635 70.3006L151.633 70.1879ZM152.224 65.6714L156.041 66.8683C156.34 65.9145 156.747 65.187 157.223 64.6196L154.157 62.0506L151.091 59.4815C149.868 60.9406 148.987 62.6271 148.407 64.4745L152.224 65.6714ZM154.157 62.0506L157.199 64.647C157.68 64.0842 158.279 63.6203 159.05 63.257L157.344 59.639L155.638 56.021C153.889 56.8457 152.364 57.9895 151.114 59.4542L154.157 62.0506ZM157.344 59.639L159.05 63.257C159.748 62.9278 160.613 62.7106 161.714 62.6796L161.601 58.6812L161.488 54.6828C159.432 54.7408 157.459 55.1621 155.638 56.021L157.344 59.639ZM161.645 60.2358L161.532 56.2373C158.303 56.3284 155.858 58.1035 154.35 60.7119L157.813 62.7134L161.277 64.7149C161.492 64.3415 161.637 64.2501 161.639 64.2485C161.643 64.2461 161.64 64.2476 161.641 64.2475C161.643 64.2468 161.677 64.2364 161.758 64.2342L161.645 60.2358ZM157.813 62.7134L154.336 60.7374C152.879 63.3019 152.486 66.6387 152.586 70.1611L156.584 70.0483L160.583 69.9356C160.497 66.8889 160.924 65.3358 161.291 64.6894L157.813 62.7134ZM156.584 70.0483L152.586 70.1611C152.685 73.6834 153.265 76.9928 154.864 79.4711L158.225 77.3023L161.586 75.1335C161.183 74.5088 160.668 72.9823 160.583 69.9356L156.584 70.0483ZM158.225 77.3023L154.89 79.511C156.55 82.0183 159.092 83.6251 162.302 83.5346L162.189 79.5362L162.076 75.5378C161.993 75.5401 161.955 75.5315 161.949 75.5302C161.946 75.5294 161.947 75.5299 161.942 75.5273C161.939 75.5254 161.792 75.4448 161.56 75.0937L158.225 77.3023ZM162.189 79.5362L162.302 83.5346C165.537 83.4434 167.983 81.6615 169.475 79.0352L165.997 77.0592L162.519 75.0833C162.414 75.2673 162.327 75.3806 162.269 75.4457C162.212 75.5089 162.181 75.5289 162.18 75.5296C162.178 75.5306 162.18 75.5294 162.184 75.5276C162.188 75.5257 162.19 75.525 162.189 75.5253C162.188 75.5256 162.18 75.528 162.163 75.5306C162.146 75.5333 162.118 75.5366 162.076 75.5378L162.189 79.5362ZM165.997 77.0592L169.46 79.0607C170.946 76.4905 171.348 73.1523 171.249 69.6348L167.251 69.7476L163.252 69.8603C163.338 72.8799 162.904 74.4162 162.534 75.0577L165.997 77.0592ZM167.251 69.7476L171.249 69.6348C171.197 67.7995 171.008 66.0879 170.637 64.5433L166.747 65.4773L162.858 66.4114C163.066 67.2759 163.212 68.4111 163.252 69.8603L167.251 69.7476ZM166.747 65.4773L170.637 64.5433C170.28 63.058 169.759 61.6364 168.988 60.3906L165.586 62.4942L162.184 64.5978C162.383 64.9204 162.636 65.4875 162.858 66.4114L166.747 65.4773ZM165.586 62.4942L168.988 60.3906C168.218 59.1452 167.174 58.0255 165.785 57.264L163.862 60.7716L161.94 64.2793C161.879 64.2462 161.984 64.2749 162.184 64.5978L165.586 62.4942ZM163.862 60.7716L165.848 57.2991C164.505 56.5314 163.032 56.1951 161.532 56.2373L161.645 60.2358L161.758 64.2342C161.835 64.232 161.868 64.2401 161.869 64.2406C161.872 64.2411 161.872 64.2412 161.87 64.2407C161.869 64.2403 161.871 64.2409 161.877 64.2441L163.862 60.7716Z" fill="#E2CFCD" mask="url(#path-7-outside-4_125_38)"/>
</g>
<g filter="url(#filter4_n_125_38)">
<mask id="path-9-outside-5_125_38" maskUnits="userSpaceOnUse" x="172.034" y="47.3544" width="28.789" height="31.7108" fill="black">
<rect fill="white" x="172.034" y="47.3544" width="28.789" height="31.7108"/>
<path d="M177.013 54.2583C180.099 53.8597 182.776 53.1366 185.047 52.0888C185.45 52.238 185.734 52.4381 185.9 52.6891L186.006 56.803C186.567 55.6716 187.417 54.5648 188.553 53.4824C189.706 52.3996 190.92 51.8418 192.196 51.8089C193.153 51.7843 193.934 52.0514 194.538 52.6102C195.159 53.1527 195.482 53.9182 195.507 54.9068C195.531 55.8476 195.271 56.5883 194.727 57.1288C194.182 57.6694 193.487 57.9506 192.642 57.9723C191.861 57.9925 191.209 57.7619 190.686 57.2808C190.178 56.7833 189.89 56.1206 189.821 55.2926C189.158 55.5969 188.409 56.2544 187.574 57.2652C186.754 58.2756 186.261 59.2696 186.095 60.2472C186.187 63.8029 186.338 67.1976 186.549 70.4312C186.575 70.8454 186.736 71.2003 187.031 71.4958C187.325 71.7754 187.754 71.9878 188.316 72.1329C188.878 72.2779 189.344 72.3856 189.712 72.4559C190.081 72.5102 190.561 72.5617 191.152 72.6103C191.253 72.7992 191.306 72.9972 191.311 73.2045C191.315 73.364 191.272 73.5406 191.181 73.7344C188.787 73.7004 186.418 73.7135 184.074 73.7739C182.129 73.824 180.105 73.924 178.003 74.0739C177.932 73.8204 177.896 73.6458 177.893 73.5502C177.891 73.4705 177.918 73.2703 177.974 72.9498C178.498 72.8724 178.927 72.7976 179.26 72.7252C179.593 72.6368 180.005 72.5065 180.495 72.3343C180.985 72.1622 181.354 71.9293 181.602 71.6357C181.849 71.3262 181.975 70.9639 181.98 70.5489C182.004 68.9687 181.986 67.0544 181.928 64.8062C181.909 64.0567 181.868 62.7813 181.806 60.9799C181.743 59.1785 181.695 57.6002 181.66 56.2448C180.737 55.7101 179.197 55.4227 177.042 55.3825C176.972 55.129 176.935 54.9305 176.931 54.787C176.929 54.6913 176.956 54.5151 177.013 54.2583Z"/>
</mask>
<path d="M177.013 54.2583C180.099 53.8597 182.776 53.1366 185.047 52.0888C185.45 52.238 185.734 52.4381 185.9 52.6891L186.006 56.803C186.567 55.6716 187.417 54.5648 188.553 53.4824C189.706 52.3996 190.92 51.8418 192.196 51.8089C193.153 51.7843 193.934 52.0514 194.538 52.6102C195.159 53.1527 195.482 53.9182 195.507 54.9068C195.531 55.8476 195.271 56.5883 194.727 57.1288C194.182 57.6694 193.487 57.9506 192.642 57.9723C191.861 57.9925 191.209 57.7619 190.686 57.2808C190.178 56.7833 189.89 56.1206 189.821 55.2926C189.158 55.5969 188.409 56.2544 187.574 57.2652C186.754 58.2756 186.261 59.2696 186.095 60.2472C186.187 63.8029 186.338 67.1976 186.549 70.4312C186.575 70.8454 186.736 71.2003 187.031 71.4958C187.325 71.7754 187.754 71.9878 188.316 72.1329C188.878 72.2779 189.344 72.3856 189.712 72.4559C190.081 72.5102 190.561 72.5617 191.152 72.6103C191.253 72.7992 191.306 72.9972 191.311 73.2045C191.315 73.364 191.272 73.5406 191.181 73.7344C188.787 73.7004 186.418 73.7135 184.074 73.7739C182.129 73.824 180.105 73.924 178.003 74.0739C177.932 73.8204 177.896 73.6458 177.893 73.5502C177.891 73.4705 177.918 73.2703 177.974 72.9498C178.498 72.8724 178.927 72.7976 179.26 72.7252C179.593 72.6368 180.005 72.5065 180.495 72.3343C180.985 72.1622 181.354 71.9293 181.602 71.6357C181.849 71.3262 181.975 70.9639 181.98 70.5489C182.004 68.9687 181.986 67.0544 181.928 64.8062C181.909 64.0567 181.868 62.7813 181.806 60.9799C181.743 59.1785 181.695 57.6002 181.66 56.2448C180.737 55.7101 179.197 55.4227 177.042 55.3825C176.972 55.129 176.935 54.9305 176.931 54.787C176.929 54.6913 176.956 54.5151 177.013 54.2583Z" fill="black"/>
<path d="M177.013 54.2583L176.501 50.2913L173.719 50.6507L173.109 53.3884L177.013 54.2583ZM185.047 52.0888L186.437 48.3379L184.879 47.761L183.371 48.4568L185.047 52.0888ZM185.9 52.6891L189.899 52.5861L189.869 51.4393L189.237 50.4825L185.9 52.6891ZM186.006 56.803L182.008 56.906L189.59 58.5805L186.006 56.803ZM188.553 53.4824L185.815 50.5668L185.805 50.576L185.795 50.5853L188.553 53.4824ZM194.538 52.6102L191.824 55.548L191.864 55.5851L191.905 55.6212L194.538 52.6102ZM190.686 57.2808L187.885 60.137L187.931 60.1815L187.977 60.2245L190.686 57.2808ZM189.821 55.2926L193.807 54.9595L193.332 49.2777L188.151 51.6579L189.821 55.2926ZM187.574 57.2652L184.491 54.7166L184.479 54.7309L184.467 54.7452L187.574 57.2652ZM186.095 60.2472L182.152 59.5764L182.086 59.9606L182.096 60.3502L186.095 60.2472ZM186.549 70.4312L190.541 70.1746L190.54 70.1708L186.549 70.4312ZM187.031 71.4958L184.199 74.3207L184.237 74.3589L184.276 74.3962L187.031 71.4958ZM188.316 72.1329L187.316 76.006L188.316 72.1329ZM189.712 72.4559L188.964 76.3852L189.046 76.4009L189.129 76.4131L189.712 72.4559ZM191.152 72.6103L194.683 70.7299L193.656 68.8024L191.48 68.6237L191.152 72.6103ZM191.181 73.7344L191.124 77.734L193.708 77.7708L194.804 75.4305L191.181 73.7344ZM178.003 74.0739L174.148 75.1437L175.023 78.2965L178.287 78.0638L178.003 74.0739ZM177.974 72.9498L177.39 68.9925L174.527 69.4147L174.032 72.2666L177.974 72.9498ZM179.26 72.7252L180.11 76.6339L180.199 76.6146L180.287 76.5912L179.26 72.7252ZM181.602 71.6357L184.659 74.2153L184.693 74.1744L184.727 74.1326L181.602 71.6357ZM181.98 70.5489L177.981 70.4904L177.981 70.4982L181.98 70.5489ZM181.66 56.2448L185.659 56.1418L185.601 53.9048L183.664 52.7834L181.66 56.2448ZM177.042 55.3825L173.188 56.4522L173.986 59.3261L176.968 59.3818L177.042 55.3825ZM177.013 54.2583L177.526 58.2254C180.92 57.7869 184.007 56.9742 186.723 55.7208L185.047 52.0888L183.371 48.4568C181.546 49.299 179.277 49.9326 176.501 50.2913L177.013 54.2583ZM185.047 52.0888L183.658 55.8397C183.593 55.8156 183.029 55.5982 182.564 54.8958L185.9 52.6891L189.237 50.4825C188.44 49.278 187.307 48.6604 186.437 48.3379L185.047 52.0888ZM185.9 52.6891L181.902 52.7921L182.008 56.906L186.006 56.803L190.005 56.7L189.899 52.5861L185.9 52.6891ZM186.006 56.803L189.59 58.5805C189.9 57.9554 190.434 57.2149 191.312 56.3794L188.553 53.4824L185.795 50.5853C184.399 51.9146 183.235 53.3879 182.423 55.0254L186.006 56.803ZM188.553 53.4824L191.292 56.398C191.907 55.8199 192.225 55.8095 192.299 55.8076L192.196 51.8089L192.093 47.8103C189.616 47.8741 187.505 48.9793 185.815 50.5668L188.553 53.4824ZM192.196 51.8089L192.299 55.8076C192.377 55.8056 192.329 55.8181 192.204 55.7754C192.069 55.729 191.931 55.6475 191.824 55.548L194.538 52.6102L197.253 49.6724C195.759 48.2919 193.909 47.7635 192.093 47.8103L192.196 51.8089ZM194.538 52.6102L191.905 55.6212C191.755 55.4896 191.632 55.3172 191.56 55.1457C191.494 54.9899 191.506 54.9218 191.508 55.0098L195.507 54.9068L199.506 54.8038C199.458 52.9402 198.8 51.0234 197.172 49.5992L194.538 52.6102ZM195.507 54.9068L191.508 55.0098C191.51 55.0885 191.497 55.0118 191.556 54.8424C191.621 54.6562 191.742 54.4556 191.908 54.2901L194.727 57.1288L197.545 59.9676C199.043 58.4805 199.551 56.5783 199.506 54.8038L195.507 54.9068ZM194.727 57.1288L191.908 54.2901C192.004 54.1951 192.14 54.1007 192.297 54.0372C192.447 53.9764 192.543 53.9736 192.539 53.9737L192.642 57.9723L192.745 61.971C194.497 61.9259 196.2 61.3027 197.545 59.9676L194.727 57.1288ZM192.642 57.9723L192.539 53.9737C192.574 53.9728 192.709 53.9758 192.9 54.0432C193.098 54.1131 193.269 54.222 193.394 54.3371L190.686 57.2808L187.977 60.2245C189.344 61.4822 191.039 62.015 192.745 61.971L192.642 57.9723ZM190.686 57.2808L193.486 54.4245C193.606 54.5424 193.699 54.6824 193.757 54.8149C193.811 54.9391 193.81 55.002 193.807 54.9595L189.821 55.2926L185.835 55.6258C185.969 57.2391 186.58 58.857 187.885 60.137L190.686 57.2808ZM189.821 55.2926L188.151 51.6579C186.664 52.3408 185.45 53.5559 184.491 54.7166L187.574 57.2652L190.657 59.8138C190.979 59.4244 191.228 59.1724 191.401 59.0199C191.584 58.8598 191.613 58.8709 191.491 58.9274L189.821 55.2926ZM187.574 57.2652L184.467 54.7452C183.346 56.1281 182.464 57.7414 182.152 59.5764L186.095 60.2472L190.038 60.9179C190.059 60.7978 190.163 60.4231 190.68 59.7852L187.574 57.2652ZM186.095 60.2472L182.096 60.3502C182.189 63.9534 182.343 67.4008 182.557 70.6916L186.549 70.4312L190.54 70.1708C190.333 66.9944 190.184 63.6524 190.094 60.1442L186.095 60.2472ZM186.549 70.4312L182.557 70.6878C182.646 72.0767 183.223 73.3425 184.199 74.3207L187.031 71.4958L189.863 68.671C190.03 68.8384 190.202 69.0677 190.333 69.3577C190.465 69.6481 190.525 69.9317 190.541 70.1746L186.549 70.4312ZM187.031 71.4958L184.276 74.3962C185.23 75.3023 186.362 75.7597 187.316 76.006L188.316 72.1329L189.315 68.2598C189.248 68.2423 189.269 68.2412 189.35 68.2811C189.432 68.3219 189.597 68.4161 189.786 68.5955L187.031 71.4958ZM188.316 72.1329L187.316 76.006C187.922 76.1623 188.478 76.2927 188.964 76.3852L189.712 72.4559L190.461 68.5266C190.209 68.4785 189.834 68.3936 189.315 68.2598L188.316 72.1329ZM189.712 72.4559L189.129 76.4131C189.617 76.4851 190.191 76.5448 190.825 76.5969L191.152 72.6103L191.48 68.6237C190.93 68.5786 190.545 68.5354 190.296 68.4987L189.712 72.4559ZM191.152 72.6103L187.622 74.4907C187.44 74.1496 187.324 73.7412 187.313 73.3075L191.311 73.2045L195.31 73.1015C195.288 72.2532 195.066 71.4487 194.683 70.7299L191.152 72.6103ZM191.311 73.2045L187.313 73.3075C187.296 72.6714 187.472 72.2236 187.559 72.0383L191.181 73.7344L194.804 75.4305C195.072 74.8576 195.335 74.0566 195.31 73.1015L191.311 73.2045ZM191.181 73.7344L191.238 69.7348C188.792 69.7 186.369 69.7134 183.971 69.7752L184.074 73.7739L184.177 77.7726C186.467 77.7136 188.782 77.7007 191.124 77.734L191.181 73.7344ZM184.074 73.7739L183.971 69.7752C181.96 69.827 179.876 69.9302 177.718 70.084L178.003 74.0739L178.287 78.0638C180.334 77.9178 182.297 77.821 184.177 77.7726L184.074 73.7739ZM178.003 74.0739L181.857 73.0042C181.835 72.9259 181.833 72.909 181.838 72.9362C181.841 72.9513 181.851 72.9976 181.861 73.0672C181.87 73.1288 181.887 73.2648 181.892 73.4472L177.893 73.5502L173.895 73.6532C173.912 74.312 174.092 74.9411 174.148 75.1437L178.003 74.0739ZM177.893 73.5502L181.892 73.4472C181.895 73.5624 181.892 73.6522 181.89 73.7019C181.887 73.7556 181.884 73.7964 181.882 73.8195C181.878 73.8636 181.875 73.8843 181.877 73.8703C181.878 73.8597 181.882 73.8348 181.888 73.7923C181.895 73.7506 181.904 73.6979 181.915 73.633L177.974 72.9498L174.032 72.2666C174 72.4511 173.97 72.6378 173.947 72.8102C173.935 72.8978 173.884 73.2574 173.895 73.6532L177.893 73.5502ZM177.974 72.9498L178.557 76.907C179.128 76.8228 179.654 76.7329 180.11 76.6339L179.26 72.7252L178.411 68.8164C178.2 68.8622 177.869 68.922 177.39 68.9925L177.974 72.9498ZM179.26 72.7252L180.287 76.5912C180.757 76.4663 181.276 76.2996 181.82 76.1083L180.495 72.3343L179.169 68.5604C178.733 68.7135 178.429 68.8073 178.234 68.8591L179.26 72.7252ZM180.495 72.3343L181.82 76.1083C182.755 75.7799 183.816 75.2138 184.659 74.2153L181.602 71.6357L178.545 69.0561C178.892 68.6448 179.215 68.5444 179.169 68.5604L180.495 72.3343ZM181.602 71.6357L184.727 74.1326C185.557 73.093 185.964 71.8592 185.98 70.5997L181.98 70.5489L177.981 70.4982C177.983 70.3096 178.015 70.0732 178.105 69.8151C178.196 69.5548 178.327 69.3259 178.477 69.1388L181.602 71.6357ZM181.98 70.5489L185.98 70.6074C186.004 68.9562 185.986 66.9848 185.927 64.7032L181.928 64.8062L177.93 64.9092C177.987 67.1241 178.003 68.9812 177.981 70.4904L181.98 70.5489ZM181.928 64.8062L185.927 64.7032C185.907 63.9342 185.866 62.643 185.803 60.8415L181.806 60.9799L177.808 61.1183C177.871 62.9197 177.911 64.1793 177.93 64.9092L181.928 64.8062ZM181.806 60.9799L185.803 60.8415C185.741 59.0484 185.693 57.4822 185.659 56.1418L181.66 56.2448L177.661 56.3478C177.697 57.7181 177.746 59.3087 177.808 61.1183L181.806 60.9799ZM181.66 56.2448L183.664 52.7834C181.809 51.7088 179.39 51.4256 177.117 51.3832L177.042 55.3825L176.968 59.3818C177.9 59.3992 178.591 59.4691 179.079 59.5602C179.591 59.6559 179.725 59.7467 179.655 59.7063L181.66 56.2448ZM177.042 55.3825L180.897 54.3127C180.884 54.2658 180.886 54.2683 180.894 54.31C180.898 54.3325 180.905 54.3742 180.912 54.432C180.919 54.4887 180.927 54.5747 180.93 54.684L176.931 54.787L172.933 54.89C172.949 55.5261 173.09 56.0983 173.188 56.4522L177.042 55.3825ZM176.931 54.787L180.93 54.684C180.935 54.8664 180.924 55.0031 180.918 55.065C180.912 55.1351 180.905 55.1818 180.903 55.197C180.898 55.2245 180.9 55.2075 180.918 55.1282L177.013 54.2583L173.109 53.3884C173.063 53.5936 172.916 54.2312 172.933 54.89L176.931 54.787Z" fill="#E2CFCD" mask="url(#path-9-outside-5_125_38)"/>
</g>
<g filter="url(#filter5_n_125_38)">
<mask id="path-11-outside-6_125_38" maskUnits="userSpaceOnUse" x="194.928" y="48.1713" width="37.3055" height="47.7289" fill="black">
<rect fill="white" x="194.928" y="48.1713" width="37.3055" height="47.7289"/>
<path d="M214.86 89.1425C216.269 89.0709 216.989 88.7324 217.02 88.1271C217.038 87.7767 216.883 87.3774 216.554 86.9294L210.459 78.2324L209.288 78.1725C209.094 81.9797 208.999 84.7698 209.004 86.5429C208.983 86.9571 209.068 87.3208 209.259 87.6341C209.468 87.9322 209.775 88.1715 210.181 88.352C210.603 88.5333 210.947 88.6708 211.214 88.7643C211.497 88.8427 211.868 88.9255 212.327 89.0129C212.413 89.2089 212.451 89.4105 212.44 89.6176C212.429 89.8247 212.373 89.9975 212.27 90.1359C210.172 89.9327 208.183 89.783 206.303 89.6868C204.36 89.5874 202.334 89.5316 200.227 89.5196C200.176 89.2614 200.153 89.0846 200.158 88.989C200.162 88.9094 200.204 88.7119 200.284 88.3965C200.813 88.3597 201.239 88.3176 201.56 88.2702C201.899 88.2077 202.319 88.1094 202.821 87.9754C203.339 87.8422 203.733 87.6387 204.003 87.365C204.273 87.0754 204.427 86.7239 204.464 86.3106C204.608 84.7368 204.886 79.7679 205.299 71.4041C205.711 63.0242 205.944 58.3325 205.995 57.329C205.114 56.7568 203.601 56.352 201.457 56.1145C201.388 55.9033 201.358 55.7101 201.367 55.5349C201.375 55.3756 201.425 55.1945 201.515 54.9914C204.556 54.8596 207.274 54.3439 209.668 53.4442C210.089 53.6415 210.356 53.8708 210.471 54.1322L209.367 76.6433L210.609 76.7069L215.671 72.3661C215.991 72.0312 216.161 71.6805 216.18 71.3141C216.214 70.6451 215.478 70.1922 213.973 69.9554C213.923 69.6973 213.9 69.5204 213.905 69.4249C213.912 69.2815 213.954 69.084 214.031 68.8324C216.097 69.034 217.743 69.1661 218.97 69.2289C220.308 69.2974 222.007 69.3364 224.066 69.346C224.12 69.5405 224.144 69.7093 224.136 69.8527C224.131 69.9483 224.089 70.1537 224.009 70.4691C222.583 70.5558 221.4 70.7348 220.46 71.0061C219.52 71.2615 218.657 71.7524 217.869 72.4787L213.873 76.1312L221.739 87.1948C222.632 88.4862 224.026 89.3242 225.923 89.7088C225.971 90.0306 225.991 90.2473 225.986 90.3588C225.979 90.4862 225.939 90.6439 225.866 90.8318C223.816 90.6311 221.962 90.4883 220.306 90.4035C218.697 90.3211 216.862 90.2752 214.802 90.2656C214.752 90.0074 214.73 89.8147 214.736 89.6872C214.742 89.5757 214.783 89.3941 214.86 89.1425Z"/>
</mask>
<path d="M214.86 89.1425C216.269 89.0709 216.989 88.7324 217.02 88.1271C217.038 87.7767 216.883 87.3774 216.554 86.9294L210.459 78.2324L209.288 78.1725C209.094 81.9797 208.999 84.7698 209.004 86.5429C208.983 86.9571 209.068 87.3208 209.259 87.6341C209.468 87.9322 209.775 88.1715 210.181 88.352C210.603 88.5333 210.947 88.6708 211.214 88.7643C211.497 88.8427 211.868 88.9255 212.327 89.0129C212.413 89.2089 212.451 89.4105 212.44 89.6176C212.429 89.8247 212.373 89.9975 212.27 90.1359C210.172 89.9327 208.183 89.783 206.303 89.6868C204.36 89.5874 202.334 89.5316 200.227 89.5196C200.176 89.2614 200.153 89.0846 200.158 88.989C200.162 88.9094 200.204 88.7119 200.284 88.3965C200.813 88.3597 201.239 88.3176 201.56 88.2702C201.899 88.2077 202.319 88.1094 202.821 87.9754C203.339 87.8422 203.733 87.6387 204.003 87.365C204.273 87.0754 204.427 86.7239 204.464 86.3106C204.608 84.7368 204.886 79.7679 205.299 71.4041C205.711 63.0242 205.944 58.3325 205.995 57.329C205.114 56.7568 203.601 56.352 201.457 56.1145C201.388 55.9033 201.358 55.7101 201.367 55.5349C201.375 55.3756 201.425 55.1945 201.515 54.9914C204.556 54.8596 207.274 54.3439 209.668 53.4442C210.089 53.6415 210.356 53.8708 210.471 54.1322L209.367 76.6433L210.609 76.7069L215.671 72.3661C215.991 72.0312 216.161 71.6805 216.18 71.3141C216.214 70.6451 215.478 70.1922 213.973 69.9554C213.923 69.6973 213.9 69.5204 213.905 69.4249C213.912 69.2815 213.954 69.084 214.031 68.8324C216.097 69.034 217.743 69.1661 218.97 69.2289C220.308 69.2974 222.007 69.3364 224.066 69.346C224.12 69.5405 224.144 69.7093 224.136 69.8527C224.131 69.9483 224.089 70.1537 224.009 70.4691C222.583 70.5558 221.4 70.7348 220.46 71.0061C219.52 71.2615 218.657 71.7524 217.869 72.4787L213.873 76.1312L221.739 87.1948C222.632 88.4862 224.026 89.3242 225.923 89.7088C225.971 90.0306 225.991 90.2473 225.986 90.3588C225.979 90.4862 225.939 90.6439 225.866 90.8318C223.816 90.6311 221.962 90.4883 220.306 90.4035C218.697 90.3211 216.862 90.2752 214.802 90.2656C214.752 90.0074 214.73 89.8147 214.736 89.6872C214.742 89.5757 214.783 89.3941 214.86 89.1425Z" fill="black"/>
<path d="M214.86 89.1425L214.657 85.1477L211.853 85.2902L211.034 87.9753L214.86 89.1425ZM216.554 86.9294L213.279 89.2251L213.303 89.2599L213.328 89.2943L216.554 86.9294ZM210.459 78.2324L213.735 75.9367L212.614 74.3375L210.664 74.2377L210.459 78.2324ZM209.288 78.1725L209.493 74.1777L205.498 73.9733L205.294 77.968L209.288 78.1725ZM209.004 86.5429L212.998 86.7474L213.004 86.6395L213.004 86.5315L209.004 86.5429ZM209.259 87.6341L205.847 89.7211L205.911 89.8252L205.98 89.9252L209.259 87.6341ZM210.181 88.352L208.556 92.0071L208.579 92.0173L208.602 92.0271L210.181 88.352ZM211.214 88.7643L209.891 92.539L210.018 92.5836L210.148 92.6196L211.214 88.7643ZM212.327 89.0129L215.992 87.4093L215.146 85.478L213.075 85.0835L212.327 89.0129ZM212.27 90.1359L211.884 94.1173L214.133 94.3351L215.48 92.522L212.27 90.1359ZM200.227 89.5196L196.302 90.2901L196.932 93.5008L200.204 93.5195L200.227 89.5196ZM200.284 88.3965L200.007 84.4062L197.119 84.6071L196.407 87.4126L200.284 88.3965ZM201.56 88.2702L202.143 92.2275L202.215 92.2169L202.287 92.2037L201.56 88.2702ZM202.821 87.9754L201.825 84.1015L201.807 84.106L201.79 84.1107L202.821 87.9754ZM204.003 87.365L206.852 90.1718L206.89 90.1337L206.926 90.0946L204.003 87.365ZM204.464 86.3106L200.48 85.945L200.48 85.9527L204.464 86.3106ZM205.299 71.4041L201.303 71.2072L201.303 71.2072L205.299 71.4041ZM205.995 57.329L209.99 57.5334L210.108 55.2302L208.173 53.9742L205.995 57.329ZM201.457 56.1145L197.655 57.3577L198.456 59.8065L201.017 60.0902L201.457 56.1145ZM201.515 54.9914L201.342 50.9952L198.866 51.1025L197.86 53.3666L201.515 54.9914ZM209.668 53.4442L211.364 49.8218L209.838 49.1071L208.26 49.6999L209.668 53.4442ZM210.471 54.1322L214.466 54.3282L214.512 53.3895L214.135 52.5285L210.471 54.1322ZM209.367 76.6433L205.371 76.4473L205.176 80.434L209.162 80.638L209.367 76.6433ZM210.609 76.7069L210.405 80.7016L212 80.7833L213.213 79.7432L210.609 76.7069ZM215.671 72.3661L218.275 75.4025L218.424 75.2743L218.56 75.1319L215.671 72.3661ZM213.973 69.9554L210.048 70.726L210.587 73.472L213.352 73.9069L213.973 69.9554ZM214.031 68.8324L214.419 64.8513L211.16 64.5333L210.205 67.6652L214.031 68.8324ZM224.066 69.346L227.921 68.2767L227.112 65.3602L224.085 65.3461L224.066 69.346ZM224.009 70.4691L224.252 74.4617L227.168 74.2843L227.886 71.453L224.009 70.4691ZM220.46 71.0061L221.509 74.8661L221.539 74.8579L221.569 74.8493L220.46 71.0061ZM217.869 72.4787L220.568 75.4312L220.574 75.4254L220.58 75.4196L217.869 72.4787ZM213.873 76.1312L211.174 73.1787L208.563 75.5657L210.613 78.4492L213.873 76.1312ZM221.739 87.1948L225.03 84.9212L225.015 84.8989L224.999 84.8768L221.739 87.1948ZM225.923 89.7088L229.88 89.1258L229.471 86.3467L226.718 85.7885L225.923 89.7088ZM225.866 90.8318L225.476 94.8128L228.488 95.1077L229.591 92.289L225.866 90.8318ZM214.802 90.2656L210.877 91.0361L211.508 94.2503L214.784 94.2655L214.802 90.2656ZM214.86 89.1425L215.063 93.1374C215.948 93.0924 217.096 92.9544 218.158 92.455C219.369 91.8859 220.9 90.5767 221.015 88.3316L217.02 88.1271L213.025 87.9227C213.06 87.2448 213.309 86.5791 213.738 86.0404C214.129 85.5488 214.549 85.3119 214.755 85.215C215.098 85.054 215.181 85.121 214.657 85.1477L214.86 89.1425ZM217.02 88.1271L221.015 88.3316C221.1 86.6601 220.355 85.3483 219.78 84.5645L216.554 86.9294L213.328 89.2943C213.344 89.315 213.269 89.2203 213.189 89.0145C213.106 88.8014 213 88.4216 213.025 87.9227L217.02 88.1271ZM216.554 86.9294L219.83 84.6337L213.735 75.9367L210.459 78.2324L207.184 80.5281L213.279 89.2251L216.554 86.9294ZM210.459 78.2324L210.664 74.2377L209.493 74.1777L209.288 78.1725L209.084 82.1673L210.255 82.2272L210.459 78.2324ZM209.288 78.1725L205.294 77.968C205.098 81.785 204.998 84.6663 205.004 86.5544L209.004 86.5429L213.004 86.5315C212.999 84.8734 213.089 82.1744 213.283 78.377L209.288 78.1725ZM209.004 86.5429L205.009 86.3385C204.952 87.4497 205.182 88.6334 205.847 89.7211L209.259 87.6341L212.672 85.547C212.954 86.0082 213.013 86.4644 212.998 86.7474L209.004 86.5429ZM209.259 87.6341L205.98 89.9252C206.689 90.9396 207.632 91.5964 208.556 92.0071L210.181 88.352L211.806 84.6969C211.918 84.7466 212.246 84.9248 212.538 85.3429L209.259 87.6341ZM210.181 88.352L208.602 92.0271C209.063 92.2253 209.501 92.4025 209.891 92.539L211.214 88.7643L212.537 84.9895C212.393 84.939 212.143 84.8414 211.76 84.677L210.181 88.352ZM211.214 88.7643L210.148 92.6196C210.578 92.7386 211.067 92.8449 211.579 92.9423L212.327 89.0129L213.075 85.0835C212.67 85.0062 212.416 84.9467 212.28 84.909L211.214 88.7643ZM212.327 89.0129L208.663 90.6165C208.508 90.2625 208.423 89.8464 208.445 89.4131L212.44 89.6176L216.435 89.8221C216.478 88.9746 216.318 88.1554 215.992 87.4093L212.327 89.0129ZM212.44 89.6176L208.445 89.4131C208.467 88.993 208.603 88.3637 209.059 87.7499L212.27 90.1359L215.48 92.522C216.142 91.6313 216.392 90.6563 216.435 89.8221L212.44 89.6176ZM212.27 90.1359L212.655 86.1546C210.504 85.9462 208.455 85.7917 206.508 85.6921L206.303 89.6868L206.099 93.6816C207.911 93.7744 209.839 93.9193 211.884 94.1173L212.27 90.1359ZM206.303 89.6868L206.508 85.6921C204.499 85.5893 202.413 85.532 200.25 85.5196L200.227 89.5196L200.204 93.5195C202.256 93.5312 204.221 93.5855 206.099 93.6816L206.303 89.6868ZM200.227 89.5196L204.152 88.749C204.136 88.6693 204.135 88.6523 204.139 88.6799C204.141 88.6951 204.146 88.7421 204.151 88.8122C204.155 88.8743 204.162 89.0112 204.153 89.1935L200.158 88.989L196.163 88.7845C196.13 89.4427 196.261 90.0838 196.302 90.2901L200.227 89.5196ZM200.158 88.989L204.153 89.1935C204.147 89.3085 204.137 89.3979 204.131 89.4473C204.124 89.5006 204.118 89.5411 204.114 89.5639C204.107 89.6075 204.102 89.6279 204.105 89.6142C204.107 89.6037 204.113 89.5791 204.123 89.5372C204.132 89.4962 204.145 89.4443 204.161 89.3805L200.284 88.3965L196.407 87.4126C196.361 87.5941 196.317 87.778 196.28 87.9481C196.262 88.0345 196.184 88.3891 196.163 88.7845L200.158 88.989ZM200.284 88.3965L200.562 92.3869C201.138 92.3468 201.678 92.2961 202.143 92.2275L201.56 88.2702L200.978 84.3129C200.8 84.3391 200.488 84.3727 200.007 84.4062L200.284 88.3965ZM201.56 88.2702L202.287 92.2037C202.766 92.1153 203.295 91.9889 203.853 91.84L202.821 87.9754L201.79 84.1107C201.343 84.2299 201.033 84.3 200.834 84.3367L201.56 88.2702ZM202.821 87.9754L203.818 91.8493C204.775 91.603 205.911 91.1273 206.852 90.1718L204.003 87.365L201.153 84.5582C201.555 84.1501 201.903 84.0814 201.825 84.1015L202.821 87.9754ZM204.003 87.365L206.926 90.0946C207.834 89.1219 208.335 87.923 208.448 86.6684L204.464 86.3106L200.48 85.9527C200.497 85.7649 200.546 85.5316 200.656 85.2812C200.766 85.0286 200.915 84.8106 201.079 84.6355L204.003 87.365ZM204.464 86.3106L208.447 86.6761C208.601 84.9957 208.884 79.918 209.294 71.6009L205.299 71.4041L201.303 71.2072C200.889 79.6179 200.615 84.4779 200.48 85.945L204.464 86.3106ZM205.299 71.4041L209.294 71.6009C209.707 63.2181 209.939 58.5321 209.99 57.5334L205.995 57.329L202 57.1245C201.949 58.133 201.716 62.8304 201.303 71.2072L205.299 71.4041ZM205.995 57.329L208.173 53.9742C206.459 52.861 204.141 52.3873 201.898 52.1388L201.457 56.1145L201.017 60.0902C201.958 60.1944 202.661 60.3253 203.166 60.4602C203.695 60.6019 203.856 60.7091 203.817 60.6837L205.995 57.329ZM201.457 56.1145L205.259 54.8713C205.304 55.0077 205.384 55.3131 205.362 55.7394L201.367 55.5349L197.372 55.3304C197.333 56.1072 197.473 56.7989 197.655 57.3577L201.457 56.1145ZM201.367 55.5349L205.362 55.7394C205.337 56.2219 205.207 56.5341 205.17 56.6163L201.515 54.9914L197.86 53.3666C197.643 53.8548 197.414 54.5293 197.372 55.3304L201.367 55.5349ZM201.515 54.9914L201.688 58.9877C205.073 58.841 208.219 58.262 211.075 57.1885L209.668 53.4442L208.26 49.6999C206.329 50.4258 204.039 50.8783 201.342 50.9952L201.515 54.9914ZM209.668 53.4442L207.971 57.0666C207.952 57.0578 207.794 56.9833 207.582 56.8023C207.364 56.6152 207.041 56.2717 206.806 55.7358L210.471 54.1322L214.135 52.5285C213.451 50.9648 212.146 50.1878 211.364 49.8218L209.668 53.4442ZM210.471 54.1322L206.476 53.9362L205.371 76.4473L209.367 76.6433L213.362 76.8392L214.466 54.3282L210.471 54.1322ZM209.367 76.6433L209.162 80.638L210.405 80.7016L210.609 76.7069L210.814 72.7121L209.571 72.6485L209.367 76.6433ZM210.609 76.7069L213.213 79.7432L218.275 75.4025L215.671 72.3661L213.067 69.3298L208.005 73.6705L210.609 76.7069ZM215.671 72.3661L218.56 75.1319C219.364 74.2919 220.095 73.0756 220.174 71.5186L216.18 71.3141L212.185 71.1097C212.227 70.2855 212.618 69.7704 212.781 69.6003L215.671 72.3661ZM216.18 71.3141L220.174 71.5186C220.288 69.2911 218.944 67.8015 217.751 67.0667C216.711 66.4264 215.532 66.1514 214.595 66.004L213.973 69.9554L213.352 73.9069C213.92 73.9962 213.861 74.0661 213.556 73.8787C213.37 73.7638 212.992 73.4899 212.669 72.9729C212.317 72.4089 212.152 71.7496 212.185 71.1097L216.18 71.3141ZM213.973 69.9554L217.898 69.1849C217.883 69.1052 217.881 69.0881 217.885 69.1157C217.887 69.131 217.893 69.1779 217.897 69.2481C217.902 69.3101 217.909 69.4471 217.899 69.6293L213.905 69.4249L209.91 69.2204C209.876 69.8786 210.008 70.5197 210.048 70.726L213.973 69.9554ZM213.905 69.4249L217.899 69.6293C217.894 69.7385 217.883 69.8242 217.875 69.8808C217.867 69.9384 217.859 69.9799 217.854 70.0022C217.845 70.0438 217.842 70.0462 217.857 69.9996L214.031 68.8324L210.205 67.6652C210.098 68.0164 209.942 68.5849 209.91 69.2204L213.905 69.4249ZM214.031 68.8324L213.642 72.8135C215.734 73.0176 217.45 73.1564 218.765 73.2237L218.97 69.2289L219.174 65.2341C218.036 65.1759 216.459 65.0503 214.419 64.8513L214.031 68.8324ZM218.97 69.2289L218.765 73.2237C220.189 73.2965 221.955 73.3362 224.048 73.346L224.066 69.346L224.085 65.3461C222.058 65.3366 220.427 65.2983 219.174 65.2341L218.97 69.2289ZM224.066 69.346L220.212 70.4153C220.194 70.3498 220.12 70.0694 220.142 69.6483L224.136 69.8527L228.131 70.0572C228.167 69.3493 228.047 68.7311 227.921 68.2767L224.066 69.346ZM224.136 69.8527L220.142 69.6483C220.146 69.5538 220.154 69.4791 220.159 69.4325C220.165 69.3838 220.171 69.3464 220.174 69.3235C220.181 69.2798 220.186 69.2586 220.184 69.269C220.182 69.2767 220.177 69.2986 220.168 69.3374C220.159 69.3755 220.147 69.4243 220.132 69.4851L224.009 70.4691L227.886 71.453C227.94 71.2388 228.102 70.6258 228.131 70.0572L224.136 69.8527ZM224.009 70.4691L223.766 66.4765C222.168 66.5737 220.67 66.7823 219.351 67.1629L220.46 71.0061L221.569 74.8493C222.13 74.6874 222.998 74.5379 224.252 74.4617L224.009 70.4691ZM220.46 71.0061L219.411 67.1462C217.791 67.5865 216.369 68.4208 215.158 69.5377L217.869 72.4787L220.58 75.4196C220.944 75.0839 221.25 74.9365 221.509 74.8661L220.46 71.0061ZM217.869 72.4787L215.17 69.5262L211.174 73.1787L213.873 76.1312L216.571 79.0837L220.568 75.4312L217.869 72.4787ZM213.873 76.1312L210.613 78.4492L218.48 89.5127L221.739 87.1948L224.999 84.8768L217.133 73.8133L213.873 76.1312ZM221.739 87.1948L218.448 89.4684C220.059 91.7992 222.467 93.0894 225.128 93.629L225.923 89.7088L226.718 85.7885C225.585 85.5589 225.205 85.1732 225.03 84.9212L221.739 87.1948ZM225.923 89.7088L221.966 90.2917C221.974 90.3506 221.981 90.3974 221.985 90.4335C221.99 90.4701 221.992 90.49 221.993 90.4958C221.993 90.5037 221.991 90.4825 221.989 90.4399C221.988 90.4175 221.987 90.3832 221.987 90.3391C221.986 90.2962 221.987 90.2329 221.991 90.1543L225.986 90.3588L229.98 90.5633C230.01 89.9931 229.919 89.3892 229.88 89.1258L225.923 89.7088ZM225.986 90.3588L221.991 90.1543C222.004 89.8949 222.046 89.6993 222.074 89.5887C222.103 89.474 222.131 89.4001 222.14 89.3746L225.866 90.8318L229.591 92.289C229.741 91.9051 229.943 91.2949 229.98 90.5633L225.986 90.3588ZM225.866 90.8318L226.255 86.8508C224.158 86.6454 222.241 86.4973 220.51 86.4087L220.306 90.4035L220.101 94.3983C221.683 94.4792 223.473 94.6167 225.476 94.8128L225.866 90.8318ZM220.306 90.4035L220.51 86.4087C218.825 86.3225 216.927 86.2754 214.821 86.2656L214.802 90.2656L214.784 94.2655C216.798 94.2749 218.568 94.3198 220.101 94.3983L220.306 90.4035ZM214.802 90.2656L218.728 89.4951C218.716 89.4365 218.717 89.4334 218.722 89.4723C218.724 89.4936 218.729 89.538 218.732 89.601C218.735 89.6618 218.738 89.7623 218.731 89.8917L214.736 89.6872L210.741 89.4828C210.709 90.126 210.815 90.7209 210.877 91.0361L214.802 90.2656ZM214.736 89.6872L218.731 89.8917C218.723 90.045 218.707 90.1609 218.697 90.2231C218.686 90.2895 218.676 90.3349 218.672 90.3533C218.664 90.3868 218.665 90.3773 218.686 90.3098L214.86 89.1425L211.034 87.9753C210.955 88.2328 210.775 88.8318 210.741 89.4828L214.736 89.6872Z" fill="#E2CFCD" mask="url(#path-11-outside-6_125_38)"/>
</g>
<defs>
<filter id="filter0_n_125_38" x="0.521973" y="14.9487" width="50.5742" height="44.7216" filterUnits="userSpaceOnUse" color-interpolation-filters="sRGB">
<feFlood flood-opacity="0" result="BackgroundImageFix"/>
<feBlend mode="normal" in="SourceGraphic" in2="BackgroundImageFix" result="shape"/>
<feTurbulence type="fractalNoise" baseFrequency="3.4482760429382324 3.4482760429382324" stitchTiles="stitch" numOctaves="3" result="noise" seed="6927" />
<feColorMatrix in="noise" type="luminanceToAlpha" result="alphaNoise" />
<feComponentTransfer in="alphaNoise" result="coloredNoise1">
<feFuncA type="discrete" tableValues="1 1 1 1 1 1 1 1 1 1 1 1 1 1 1 1 1 1 1 1 1 1 1 1 1 1 1 1 1 1 1 1 1 1 1 1 1 1 1 1 1 1 1 1 1 1 1 1 1 1 1 0 0 0 0 0 0 0 0 0 0 0 0 0 0 0 0 0 0 0 0 0 0 0 0 0 0 0 0 0 0 0 0 0 0 0 0 0 0 0 0 0 0 0 0 0 0 0 0 0 "/>
</feComponentTransfer>
<feComposite operator="in" in2="shape" in="coloredNoise1" result="noise1Clipped" />
<feFlood flood-color="#AC382B" result="color1Flood" />
<feComposite operator="in" in2="noise1Clipped" in="color1Flood" result="color1" />
<feMerge result="effect1_noise_125_38">
<feMergeNode in="shape" />
<feMergeNode in="color1" />
</feMerge>
</filter>
<filter id="filter1_n_125_38" x="45.7014" y="42.0114" width="35.2024" height="43.456" filterUnits="userSpaceOnUse" color-interpolation-filters="sRGB">
<feFlood flood-opacity="0" result="BackgroundImageFix"/>
<feBlend mode="normal" in="SourceGraphic" in2="BackgroundImageFix" result="shape"/>
<feTurbulence type="fractalNoise" baseFrequency="3.0303030014038086 3.0303030014038086" stitchTiles="stitch" numOctaves="3" result="noise" seed="6927" />
<feColorMatrix in="noise" type="luminanceToAlpha" result="alphaNoise" />
<feComponentTransfer in="alphaNoise" result="coloredNoise1">
<feFuncA type="discrete" tableValues="1 1 1 1 1 1 1 1 1 1 1 1 1 1 1 1 1 1 1 1 1 1 1 1 1 1 1 1 1 1 1 1 1 1 1 1 1 1 1 1 1 1 1 1 1 1 1 1 1 1 1 0 0 0 0 0 0 0 0 0 0 0 0 0 0 0 0 0 0 0 0 0 0 0 0 0 0 0 0 0 0 0 0 0 0 0 0 0 0 0 0 0 0 0 0 0 0 0 0 0 "/>
</feComponentTransfer>
<feComposite operator="in" in2="shape" in="coloredNoise1" result="noise1Clipped" />
<feFlood flood-color="#B08034" result="color1Flood" />
<feComposite operator="in" in2="noise1Clipped" in="color1Flood" result="color1" />
<feMerge result="effect1_noise_125_38">
<feMergeNode in="shape" />
<feMergeNode in="color1" />
</feMerge>
</filter>
<filter id="filter2_n_125_38" x="96.7576" y="32.1744" width="59.519" height="45.0049" filterUnits="userSpaceOnUse" color-interpolation-filters="sRGB">
<feFlood flood-opacity="0" result="BackgroundImageFix"/>
<feBlend mode="normal" in="SourceGraphic" in2="BackgroundImageFix" result="shape"/>
<feTurbulence type="fractalNoise" baseFrequency="3.0303030014038086 3.0303030014038086" stitchTiles="stitch" numOctaves="3" result="noise" seed="6927" />
<feColorMatrix in="noise" type="luminanceToAlpha" result="alphaNoise" />
<feComponentTransfer in="alphaNoise" result="coloredNoise1">
<feFuncA type="discrete" tableValues="1 1 1 1 1 1 1 1 1 1 1 1 1 1 1 1 1 1 1 1 1 1 1 1 1 1 1 1 1 1 1 1 1 1 1 1 1 1 1 1 1 1 1 1 1 1 1 1 1 1 1 0 0 0 0 0 0 0 0 0 0 0 0 0 0 0 0 0 0 0 0 0 0 0 0 0 0 0 0 0 0 0 0 0 0 0 0 0 0 0 0 0 0 0 0 0 0 0 0 0 "/>
</feComponentTransfer>
<feComposite operator="in" in2="shape" in="coloredNoise1" result="noise1Clipped" />
<feFlood flood-color="#236C78" result="color1Flood" />
<feComposite operator="in" in2="noise1Clipped" in="color1Flood" result="color1" />
<feMerge result="effect1_noise_125_38">
<feMergeNode in="shape" />
<feMergeNode in="color1" />
</feMerge>
</filter>
<filter id="filter3_n_125_38" x="147.627" y="54.676" width="28.5813" height="30.444" filterUnits="userSpaceOnUse" color-interpolation-filters="sRGB">
<feFlood flood-opacity="0" result="BackgroundImageFix"/>
<feBlend mode="normal" in="SourceGraphic" in2="BackgroundImageFix" result="shape"/>
<feTurbulence type="fractalNoise" baseFrequency="3.0303030014038086 3.0303030014038086" stitchTiles="stitch" numOctaves="3" result="noise" seed="6927" />
<feColorMatrix in="noise" type="luminanceToAlpha" result="alphaNoise" />
<feComponentTransfer in="alphaNoise" result="coloredNoise1">
<feFuncA type="discrete" tableValues="1 1 1 1 1 1 1 1 1 1 1 1 1 1 1 1 1 1 1 1 1 1 1 1 1 1 1 1 1 1 1 1 1 1 1 1 1 1 1 1 1 1 1 1 1 1 1 1 1 1 1 0 0 0 0 0 0 0 0 0 0 0 0 0 0 0 0 0 0 0 0 0 0 0 0 0 0 0 0 0 0 0 0 0 0 0 0 0 0 0 0 0 0 0 0 0 0 0 0 0 "/>
</feComponentTransfer>
<feComposite operator="in" in2="shape" in="coloredNoise1" result="noise1Clipped" />
<feFlood flood-color="#67521D" result="color1Flood" />
<feComposite operator="in" in2="noise1Clipped" in="color1Flood" result="color1" />
<feMerge result="effect1_noise_125_38">
<feMergeNode in="shape" />
<feMergeNode in="color1" />
</feMerge>
</filter>
<filter id="filter4_n_125_38" x="172.931" y="47.761" width="26.5771" height="30.5355" filterUnits="userSpaceOnUse" color-interpolation-filters="sRGB">
<feFlood flood-opacity="0" result="BackgroundImageFix"/>
<feBlend mode="normal" in="SourceGraphic" in2="BackgroundImageFix" result="shape"/>
<feTurbulence type="fractalNoise" baseFrequency="3.0303030014038086 3.0303030014038086" stitchTiles="stitch" numOctaves="3" result="noise" seed="6927" />
<feColorMatrix in="noise" type="luminanceToAlpha" result="alphaNoise" />
<feComponentTransfer in="alphaNoise" result="coloredNoise1">
<feFuncA type="discrete" tableValues="1 1 1 1 1 1 1 1 1 1 1 1 1 1 1 1 1 1 1 1 1 1 1 1 1 1 1 1 1 1 1 1 1 1 1 1 1 1 1 1 1 1 1 1 1 1 1 1 1 1 1 0 0 0 0 0 0 0 0 0 0 0 0 0 0 0 0 0 0 0 0 0 0 0 0 0 0 0 0 0 0 0 0 0 0 0 0 0 0 0 0 0 0 0 0 0 0 0 0 0 "/>
</feComponentTransfer>
<feComposite operator="in" in2="shape" in="coloredNoise1" result="noise1Clipped" />
<feFlood flood-color="#CB96A6" result="color1Flood" />
<feComposite operator="in" in2="noise1Clipped" in="color1Flood" result="color1" />
<feMerge result="effect1_noise_125_38">
<feMergeNode in="shape" />
<feMergeNode in="color1" />
</feMerge>
</filter>
<filter id="filter5_n_125_38" x="196.158" y="49.1071" width="33.8281" height="46.0007" filterUnits="userSpaceOnUse" color-interpolation-filters="sRGB">
<feFlood flood-opacity="0" result="BackgroundImageFix"/>
<feBlend mode="normal" in="SourceGraphic" in2="BackgroundImageFix" result="shape"/>
<feTurbulence type="fractalNoise" baseFrequency="3.0303030014038086 3.0303030014038086" stitchTiles="stitch" numOctaves="3" result="noise" seed="6927" />
<feColorMatrix in="noise" type="luminanceToAlpha" result="alphaNoise" />
<feComponentTransfer in="alphaNoise" result="coloredNoise1">
<feFuncA type="discrete" tableValues="1 1 1 1 1 1 1 1 1 1 1 1 1 1 1 1 1 1 1 1 1 1 1 1 1 1 1 1 1 1 1 1 1 1 1 1 1 1 1 1 1 1 1 1 1 1 1 1 1 1 1 0 0 0 0 0 0 0 0 0 0 0 0 0 0 0 0 0 0 0 0 0 0 0 0 0 0 0 0 0 0 0 0 0 0 0 0 0 0 0 0 0 0 0 0 0 0 0 0 0 "/>
</feComponentTransfer>
<feComposite operator="in" in2="shape" in="coloredNoise1" result="noise1Clipped" />
<feFlood flood-color="#B0832F" result="color1Flood" />
<feComposite operator="in" in2="noise1Clipped" in="color1Flood" result="color1" />
<feMerge result="effect1_noise_125_38">
<feMergeNode in="shape" />
<feMergeNode in="color1" />
</feMerge>
</filter>
</defs>
</svg>
